<?xml version="1.0" encoding="UTF-8" standalone="no"?>
<!DOCTYPE svg PUBLIC "-//W3C//DTD SVG 1.1//EN"
 "http://www.w3.org/Graphics/SVG/1.1/DTD/svg11.dtd">
<!-- Generated by graphviz version 8.0.5 (0)
 -->
<!-- Title: Pacbio Nanopore Pipeline Pages: 1 -->
<svg width="1916pt" height="308pt"
 viewBox="0.00 0.00 1916.48 308.00" xmlns="http://www.w3.org/2000/svg" xmlns:xlink="http://www.w3.org/1999/xlink">
<g id="graph0" class="graph" transform="scale(1 1) rotate(0) translate(4 304)">
<title>Pacbio Nanopore Pipeline</title>
<polygon fill="white" stroke="none" points="-4,4 -4,-304 1912.48,-304 1912.48,4 -4,4"/>
<text text-anchor="middle" x="954.24" y="-260" font-family="Times,serif" font-size="40.00">Pacbio Nanopore Pipeline</text>
<!-- Input_fasta -->
<g id="node1" class="node">
<title>Input_fasta</title>
<polygon fill="none" stroke="black" points="1140.94,-244 949.44,-244 949.44,-208 1140.94,-208 1140.94,-244"/>
<text text-anchor="middle" x="1045.19" y="-220" font-family="Times,serif" font-size="20.00">INPUT: genome.fasta</text>
</g>
<!-- Step1_trf -->
<g id="node5" class="node">
<title>Step1_trf</title>
<polygon fill="none" stroke="black" points="1162.28,-172 954.1,-172 954.1,-92 1162.28,-92 1162.28,-172"/>
<text text-anchor="middle" x="1058.19" y="-150" font-family="Times,serif" font-size="20.00">STEP 1: TRF</text>
<text text-anchor="middle" x="1058.19" y="-126" font-family="Times,serif" font-size="20.00">		Script: trf.sh</text>
<text text-anchor="middle" x="1058.19" y="-102" font-family="Times,serif" font-size="20.00">		Output: genome_trf.bed</text>
</g>
<!-- Input_fasta&#45;&gt;Step1_trf -->
<g id="edge1" class="edge">
<title>Input_fasta&#45;&gt;Step1_trf</title>
<path fill="none" stroke="black" d="M1047.64,-207.7C1048.64,-200.59 1049.86,-191.96 1051.11,-183.13"/>
<polygon fill="black" stroke="black" points="1054.7,-183.74 1052.63,-173.35 1047.77,-182.76 1054.7,-183.74"/>
</g>
<!-- Step2_edta -->
<g id="node6" class="node">
<title>Step2_edta</title>
<polygon fill="none" stroke="black" points="936.5,-172 713.88,-172 713.88,-92 936.5,-92 936.5,-172"/>
<text text-anchor="middle" x="825.19" y="-150" font-family="Times,serif" font-size="20.00">STEP 2: EDTA</text>
<text text-anchor="middle" x="825.19" y="-126" font-family="Times,serif" font-size="20.00">		Script: edta.sh</text>
<text text-anchor="middle" x="825.19" y="-102" font-family="Times,serif" font-size="20.00">		Output: genome_edta.bed</text>
</g>
<!-- Input_fasta&#45;&gt;Step2_edta -->
<g id="edge2" class="edge">
<title>Input_fasta&#45;&gt;Step2_edta</title>
<path fill="none" stroke="black" d="M1003.55,-207.59C982.45,-198.76 955.8,-187.62 929.57,-176.65"/>
<polygon fill="black" stroke="black" points="931.13,-173.09 920.55,-172.46 928.42,-179.55 931.13,-173.09"/>
</g>
<!-- Step3_mn -->
<g id="node7" class="node">
<title>Step3_mn</title>
<polygon fill="none" stroke="black" points="696.38,-172 0,-172 0,-92 696.38,-92 696.38,-172"/>
<text text-anchor="middle" x="348.19" y="-150" font-family="Times,serif" font-size="20.00">STEP 3: meth_nanopore</text>
<text text-anchor="middle" x="348.19" y="-126" font-family="Times,serif" font-size="20.00">		Script: meth_bed_nanopore.sh</text>
<text text-anchor="middle" x="348.19" y="-102" font-family="Times,serif" font-size="20.00">		Output: genome_meth.bed, fenome_nano_sorted.bam, genome_nano_sorted.bam.bai</text>
</g>
<!-- Input_fasta&#45;&gt;Step3_mn -->
<g id="edge3" class="edge">
<title>Input_fasta&#45;&gt;Step3_mn</title>
<path fill="none" stroke="black" d="M949.11,-210.92C942.04,-209.92 935,-208.94 928.19,-208 844.99,-196.58 755.01,-184.71 671.31,-173.87"/>
<polygon fill="black" stroke="black" points="671.97,-170.3 661.61,-172.48 671.07,-177.24 671.97,-170.3"/>
</g>
<!-- Step4_mp -->
<g id="node8" class="node">
<title>Step4_mp</title>
<polygon fill="none" stroke="black" points="1908.48,-172 1179.9,-172 1179.9,-92 1908.48,-92 1908.48,-172"/>
<text text-anchor="middle" x="1544.19" y="-150" font-family="Times,serif" font-size="20.00">STEP 4: meth_pacbio</text>
<text text-anchor="middle" x="1544.19" y="-126" font-family="Times,serif" font-size="20.00">		Script: ccsmeth.sh</text>
<text text-anchor="middle" x="1544.19" y="-102" font-family="Times,serif" font-size="20.00">		Output: genome_meth.bed, genome_pacbio_sorted.bam, genome_pacbio_sorted.bam.bai</text>
</g>
<!-- Input_fasta&#45;&gt;Step4_mp -->
<g id="edge4" class="edge">
<title>Input_fasta&#45;&gt;Step4_mp</title>
<path fill="none" stroke="black" d="M1139.93,-207.53C1191,-198.12 1256.38,-186.06 1319.6,-174.41"/>
<polygon fill="black" stroke="black" points="1319.93,-177.72 1329.13,-172.47 1318.66,-170.84 1319.93,-177.72"/>
</g>
<!-- Input_gff3 -->
<g id="node2" class="node">
<title>Input_gff3</title>
<polygon fill="none" stroke="black" points="918.73,-244 731.65,-244 731.65,-208 918.73,-208 918.73,-244"/>
<text text-anchor="middle" x="825.19" y="-220" font-family="Times,serif" font-size="20.00">INPUT: genome.gff3</text>
</g>
<!-- Input_gff3&#45;&gt;Step2_edta -->
<g id="edge5" class="edge">
<title>Input_gff3&#45;&gt;Step2_edta</title>
<path fill="none" stroke="black" d="M825.19,-207.7C825.19,-200.59 825.19,-191.96 825.19,-183.13"/>
<polygon fill="black" stroke="black" points="828.69,-183.35 825.19,-173.35 821.69,-183.35 828.69,-183.35"/>
</g>
<!-- Input_fastq -->
<g id="node3" class="node">
<title>Input_fastq</title>
<polygon fill="none" stroke="black" points="486.71,-244 209.67,-244 209.67,-208 486.71,-208 486.71,-244"/>
<text text-anchor="middle" x="348.19" y="-220" font-family="Times,serif" font-size="20.00">INPUT: genome_nanopore.fastq</text>
</g>
<!-- Input_fastq&#45;&gt;Step3_mn -->
<g id="edge6" class="edge">
<title>Input_fastq&#45;&gt;Step3_mn</title>
<path fill="none" stroke="black" d="M348.19,-207.7C348.19,-200.59 348.19,-191.96 348.19,-183.13"/>
<polygon fill="black" stroke="black" points="351.69,-183.35 348.19,-173.35 344.69,-183.35 351.69,-183.35"/>
</g>
<!-- Input_bam -->
<g id="node4" class="node">
<title>Input_bam</title>
<polygon fill="none" stroke="black" points="1703.54,-244 1384.84,-244 1384.84,-208 1703.54,-208 1703.54,-244"/>
<text text-anchor="middle" x="1544.19" y="-220" font-family="Times,serif" font-size="20.00">INPUT: genome_pacbio.subread.bam</text>
</g>
<!-- Input_bam&#45;&gt;Step4_mp -->
<g id="edge7" class="edge">
<title>Input_bam&#45;&gt;Step4_mp</title>
<path fill="none" stroke="black" d="M1544.19,-207.7C1544.19,-200.59 1544.19,-191.96 1544.19,-183.13"/>
<polygon fill="black" stroke="black" points="1547.69,-183.35 1544.19,-173.35 1540.69,-183.35 1547.69,-183.35"/>
</g>
<!-- Step5_cn -->
<g id="node9" class="node">
<title>Step5_cn</title>
<polygon fill="none" stroke="black" points="938.14,-56 592.24,-56 592.24,0 938.14,0 938.14,-56"/>
<text text-anchor="middle" x="765.19" y="-34" font-family="Times,serif" font-size="20.00">STEP 5: centromere_nanopore</text>
<text text-anchor="middle" x="765.19" y="-10" font-family="Times,serif" font-size="20.00">		Script: centromere_pipeline_nanopore.sh</text>
</g>
<!-- Step1_trf&#45;&gt;Step5_cn -->
<g id="edge8" class="edge">
<title>Step1_trf&#45;&gt;Step5_cn</title>
<path fill="none" stroke="red" d="M953.65,-94.61C921.03,-83.25 885.37,-70.84 853.93,-59.89"/>
<polygon fill="red" stroke="red" points="855.48,-56.38 844.89,-56.4 853.18,-62.99 855.48,-56.38"/>
</g>
<!-- Step6_cp -->
<g id="node10" class="node">
<title>Step6_cp</title>
<polygon fill="none" stroke="black" points="1280.58,-56 955.8,-56 955.8,0 1280.58,0 1280.58,-56"/>
<text text-anchor="middle" x="1118.19" y="-34" font-family="Times,serif" font-size="20.00">STEP 6: centromere_pacbio</text>
<text text-anchor="middle" x="1118.19" y="-10" font-family="Times,serif" font-size="20.00">		Script: centromere_pipeline_pacbio.sh</text>
</g>
<!-- Step1_trf&#45;&gt;Step6_cp -->
<g id="edge11" class="edge">
<title>Step1_trf&#45;&gt;Step6_cp</title>
<path fill="none" stroke="blue" d="M1081.39,-91.56C1086.42,-83.01 1091.72,-74 1096.68,-65.56"/>
<polygon fill="blue" stroke="blue" points="1100.06,-67.73 1102.11,-57.34 1094.02,-64.18 1100.06,-67.73"/>
</g>
<!-- Step2_edta&#45;&gt;Step5_cn -->
<g id="edge9" class="edge">
<title>Step2_edta&#45;&gt;Step5_cn</title>
<path fill="none" stroke="red" d="M801.99,-91.56C796.96,-83.01 791.66,-74 786.7,-65.56"/>
<polygon fill="red" stroke="red" points="789.36,-64.18 781.27,-57.34 783.32,-67.73 789.36,-64.18"/>
</g>
<!-- Step2_edta&#45;&gt;Step6_cp -->
<g id="edge12" class="edge">
<title>Step2_edta&#45;&gt;Step6_cp</title>
<path fill="none" stroke="blue" d="M936.8,-92.15C967.32,-81.52 999.99,-70.15 1029.08,-60.02"/>
<polygon fill="blue" stroke="blue" points="1029.91,-63.09 1038.21,-56.5 1027.61,-56.48 1029.91,-63.09"/>
</g>
<!-- Step3_mn&#45;&gt;Step5_cn -->
<g id="edge10" class="edge">
<title>Step3_mn&#45;&gt;Step5_cn</title>
<path fill="none" stroke="red" d="M509.41,-91.56C553.57,-80.76 600.72,-69.23 642.35,-59.05"/>
<polygon fill="red" stroke="red" points="642.92,-62.27 651.81,-56.49 641.26,-55.47 642.92,-62.27"/>
</g>
<!-- Step4_mp&#45;&gt;Step6_cp -->
<g id="edge13" class="edge">
<title>Step4_mp&#45;&gt;Step6_cp</title>
<path fill="none" stroke="blue" d="M1379.49,-91.56C1334.38,-80.76 1286.21,-69.23 1243.69,-59.05"/>
<polygon fill="blue" stroke="blue" points="1244.54,-55.41 1234,-56.49 1242.91,-62.22 1244.54,-55.41"/>
</g>
</g>
</svg>
