<?xml version="1.0" encoding="UTF-8" standalone="no"?>
<!DOCTYPE svg PUBLIC "-//W3C//DTD SVG 1.1//EN"
 "http://www.w3.org/Graphics/SVG/1.1/DTD/svg11.dtd">
<!-- Generated by graphviz version 8.0.5 (0)
 -->
<!-- Title: Pacbio Nanopore Pipeline Pages: 1 -->
<svg width="1980pt" height="540pt"
 viewBox="0.00 0.00 1980.48 540.00" xmlns="http://www.w3.org/2000/svg" xmlns:xlink="http://www.w3.org/1999/xlink">
<g id="graph0" class="graph" transform="scale(1 1) rotate(0) translate(4 536)">
<title>Pacbio Nanopore Pipeline</title>
<polygon fill="white" stroke="none" points="-4,4 -4,-536 1976.48,-536 1976.48,4 -4,4"/>
<text text-anchor="middle" x="986.24" y="-492" font-family="Times,serif" font-size="40.00">Pacbio Nanopore Pipeline</text>
<!-- Input_fasta -->
<g id="node1" class="node">
<title>Input_fasta</title>
<polygon fill="none" stroke="black" points="910.94,-476 719.44,-476 719.44,-440 910.94,-440 910.94,-476"/>
<text text-anchor="middle" x="815.19" y="-452" font-family="Times,serif" font-size="20.00">INPUT: genome.fasta</text>
</g>
<!-- Step1a_trf -->
<g id="node5" class="node">
<title>Step1a_trf</title>
<polygon fill="none" stroke="black" points="899.41,-288 472.98,-288 472.98,-208 899.41,-208 899.41,-288"/>
<text text-anchor="middle" x="686.19" y="-266" font-family="Times,serif" font-size="20.00">STEP 1a: TRF &#45; process genome and create dat file</text>
<text text-anchor="middle" x="686.19" y="-242" font-family="Times,serif" font-size="20.00">		Script: trf.sh</text>
<text text-anchor="middle" x="686.19" y="-218" font-family="Times,serif" font-size="20.00">		Output: genome.fasta.2.7.7.80.10.50.2000.dat</text>
</g>
<!-- Input_fasta&#45;&gt;Step1a_trf -->
<g id="edge1" class="edge">
<title>Input_fasta&#45;&gt;Step1a_trf</title>
<path fill="none" stroke="black" d="M783.85,-439.7C769.8,-430.63 754.01,-418.4 743.19,-404 730.35,-386.9 713.12,-337.1 700.97,-298.52"/>
<polygon fill="black" stroke="black" points="704.16,-297.98 697.85,-289.47 697.48,-300.06 704.16,-297.98"/>
</g>
<!-- Step2a_edta -->
<g id="node7" class="node">
<title>Step2a_edta</title>
<polygon fill="none" stroke="black" points="1225.61,-404 1000.77,-404 1000.77,-324 1225.61,-324 1225.61,-404"/>
<text text-anchor="middle" x="1113.19" y="-382" font-family="Times,serif" font-size="20.00">STEP 2a: EDTA &#45; get cds</text>
<text text-anchor="middle" x="1113.19" y="-358" font-family="Times,serif" font-size="20.00">		Script: edta.sh</text>
<text text-anchor="middle" x="1113.19" y="-334" font-family="Times,serif" font-size="20.00">		Output: genome_cds.fasta</text>
</g>
<!-- Input_fasta&#45;&gt;Step2a_edta -->
<g id="edge3" class="edge">
<title>Input_fasta&#45;&gt;Step2a_edta</title>
<path fill="none" stroke="black" d="M873.93,-439.58C905.71,-430.1 945.87,-418.01 990.13,-404.32"/>
<polygon fill="black" stroke="black" points="991.03,-407.39 999.54,-401.09 988.95,-400.7 991.03,-407.39"/>
</g>
<!-- Step3_mn -->
<g id="node11" class="node">
<title>Step3_mn</title>
<polygon fill="none" stroke="black" points="696.38,-404 0,-404 0,-324 696.38,-324 696.38,-404"/>
<text text-anchor="middle" x="348.19" y="-382" font-family="Times,serif" font-size="20.00">STEP 3: meth_nanopore</text>
<text text-anchor="middle" x="348.19" y="-358" font-family="Times,serif" font-size="20.00">		Script: meth_bed_nanopore.sh</text>
<text text-anchor="middle" x="348.19" y="-334" font-family="Times,serif" font-size="20.00">		Output: genome_meth.bed, fenome_nano_sorted.bam, genome_nano_sorted.bam.bai</text>
</g>
<!-- Input_fasta&#45;&gt;Step3_mn -->
<g id="edge7" class="edge">
<title>Input_fasta&#45;&gt;Step3_mn</title>
<path fill="none" stroke="black" d="M726.53,-439.53C678.86,-430.14 617.89,-418.13 558.88,-406.51"/>
<polygon fill="black" stroke="black" points="559.76,-402.92 549.28,-404.42 558.41,-409.78 559.76,-402.92"/>
</g>
<!-- Step4_mp -->
<g id="node12" class="node">
<title>Step4_mp</title>
<polygon fill="none" stroke="black" points="1972.48,-404 1243.9,-404 1243.9,-324 1972.48,-324 1972.48,-404"/>
<text text-anchor="middle" x="1608.19" y="-382" font-family="Times,serif" font-size="20.00">STEP 4: meth_pacbio</text>
<text text-anchor="middle" x="1608.19" y="-358" font-family="Times,serif" font-size="20.00">		Script: ccsmeth.sh</text>
<text text-anchor="middle" x="1608.19" y="-334" font-family="Times,serif" font-size="20.00">		Output: genome_meth.bed, genome_pacbio_sorted.bam, genome_pacbio_sorted.bam.bai</text>
</g>
<!-- Input_fasta&#45;&gt;Step4_mp -->
<g id="edge8" class="edge">
<title>Input_fasta&#45;&gt;Step4_mp</title>
<path fill="none" stroke="black" d="M911.24,-445.86C997.87,-435.81 1130.76,-420.39 1257.35,-405.7"/>
<polygon fill="black" stroke="black" points="1257.48,-409.09 1267.01,-404.47 1256.68,-402.14 1257.48,-409.09"/>
</g>
<!-- Input_gff3 -->
<g id="node2" class="node">
<title>Input_gff3</title>
<polygon fill="none" stroke="black" points="1206.73,-476 1019.65,-476 1019.65,-440 1206.73,-440 1206.73,-476"/>
<text text-anchor="middle" x="1113.19" y="-452" font-family="Times,serif" font-size="20.00">INPUT: genome.gff3</text>
</g>
<!-- Input_gff3&#45;&gt;Step2a_edta -->
<g id="edge9" class="edge">
<title>Input_gff3&#45;&gt;Step2a_edta</title>
<path fill="none" stroke="black" d="M1113.19,-439.7C1113.19,-432.59 1113.19,-423.96 1113.19,-415.13"/>
<polygon fill="black" stroke="black" points="1116.69,-415.35 1113.19,-405.35 1109.69,-415.35 1116.69,-415.35"/>
</g>
<!-- Input_fastq -->
<g id="node3" class="node">
<title>Input_fastq</title>
<polygon fill="none" stroke="black" points="486.71,-476 209.67,-476 209.67,-440 486.71,-440 486.71,-476"/>
<text text-anchor="middle" x="348.19" y="-452" font-family="Times,serif" font-size="20.00">INPUT: genome_nanopore.fastq</text>
</g>
<!-- Input_fastq&#45;&gt;Step3_mn -->
<g id="edge10" class="edge">
<title>Input_fastq&#45;&gt;Step3_mn</title>
<path fill="none" stroke="black" d="M348.19,-439.7C348.19,-432.59 348.19,-423.96 348.19,-415.13"/>
<polygon fill="black" stroke="black" points="351.69,-415.35 348.19,-405.35 344.69,-415.35 351.69,-415.35"/>
</g>
<!-- Input_bam -->
<g id="node4" class="node">
<title>Input_bam</title>
<polygon fill="none" stroke="black" points="1767.54,-476 1448.84,-476 1448.84,-440 1767.54,-440 1767.54,-476"/>
<text text-anchor="middle" x="1608.19" y="-452" font-family="Times,serif" font-size="20.00">INPUT: genome_pacbio.subread.bam</text>
</g>
<!-- Input_bam&#45;&gt;Step4_mp -->
<g id="edge11" class="edge">
<title>Input_bam&#45;&gt;Step4_mp</title>
<path fill="none" stroke="black" d="M1608.19,-439.7C1608.19,-432.59 1608.19,-423.96 1608.19,-415.13"/>
<polygon fill="black" stroke="black" points="1611.69,-415.35 1608.19,-405.35 1604.69,-415.35 1611.69,-415.35"/>
</g>
<!-- Step1b_trf -->
<g id="node6" class="node">
<title>Step1b_trf</title>
<polygon fill="none" stroke="black" points="853.01,-172 555.38,-172 555.38,-92 853.01,-92 853.01,-172"/>
<text text-anchor="middle" x="704.19" y="-150" font-family="Times,serif" font-size="20.00">STEP 1b: TRF &#45; convert to bed file</text>
<text text-anchor="middle" x="704.19" y="-126" font-family="Times,serif" font-size="20.00">		Script: trf.sh</text>
<text text-anchor="middle" x="704.19" y="-102" font-family="Times,serif" font-size="20.00">		Output: genome_trf.bed</text>
</g>
<!-- Step1a_trf&#45;&gt;Step1b_trf -->
<g id="edge2" class="edge">
<title>Step1a_trf&#45;&gt;Step1b_trf</title>
<path fill="none" stroke="black" d="M692.39,-207.77C693.64,-199.8 694.98,-191.31 696.29,-183.02"/>
<polygon fill="black" stroke="black" points="699.88,-183.73 697.98,-173.3 692.97,-182.64 699.88,-183.73"/>
</g>
<!-- Step5_cn -->
<g id="node13" class="node">
<title>Step5_cn</title>
<polygon fill="none" stroke="black" points="877.14,-56 531.24,-56 531.24,0 877.14,0 877.14,-56"/>
<text text-anchor="middle" x="704.19" y="-34" font-family="Times,serif" font-size="20.00">STEP 5: centromere_nanopore</text>
<text text-anchor="middle" x="704.19" y="-10" font-family="Times,serif" font-size="20.00">		Script: centromere_pipeline_nanopore.sh</text>
</g>
<!-- Step1b_trf&#45;&gt;Step5_cn -->
<g id="edge12" class="edge">
<title>Step1b_trf&#45;&gt;Step5_cn</title>
<path fill="none" stroke="red" d="M704.19,-91.56C704.19,-83.56 704.19,-75.16 704.19,-67.2"/>
<polygon fill="red" stroke="red" points="707.69,-67.34 704.19,-57.34 700.69,-67.34 707.69,-67.34"/>
</g>
<!-- Step6_cp -->
<g id="node14" class="node">
<title>Step6_cp</title>
<polygon fill="none" stroke="black" points="1256.58,-56 931.8,-56 931.8,0 1256.58,0 1256.58,-56"/>
<text text-anchor="middle" x="1094.19" y="-34" font-family="Times,serif" font-size="20.00">STEP 6: centromere_pacbio</text>
<text text-anchor="middle" x="1094.19" y="-10" font-family="Times,serif" font-size="20.00">		Script: centromere_pipeline_pacbio.sh</text>
</g>
<!-- Step1b_trf&#45;&gt;Step6_cp -->
<g id="edge15" class="edge">
<title>Step1b_trf&#45;&gt;Step6_cp</title>
<path fill="none" stroke="blue" d="M853.3,-92C894.85,-81.13 939.35,-69.5 978.66,-59.22"/>
<polygon fill="blue" stroke="blue" points="979.27,-62.41 988.06,-56.49 977.5,-55.64 979.27,-62.41"/>
</g>
<!-- Step2c_edta -->
<g id="node9" class="node">
<title>Step2c_edta</title>
<polygon fill="none" stroke="black" points="1308.92,-288 917.46,-288 917.46,-208 1308.92,-208 1308.92,-288"/>
<text text-anchor="middle" x="1113.19" y="-266" font-family="Times,serif" font-size="20.00">STEP 2c: EDTA &#45; annotate TEs</text>
<text text-anchor="middle" x="1113.19" y="-242" font-family="Times,serif" font-size="20.00">		Script: edta.sh</text>
<text text-anchor="middle" x="1113.19" y="-218" font-family="Times,serif" font-size="20.00">		Output: genome.fasta.mod.EDTA.TEanno.gffs</text>
</g>
<!-- Step2a_edta&#45;&gt;Step2c_edta -->
<g id="edge4" class="edge">
<title>Step2a_edta&#45;&gt;Step2c_edta</title>
<path fill="none" stroke="black" d="M1113.19,-323.77C1113.19,-315.89 1113.19,-307.5 1113.19,-299.3"/>
<polygon fill="black" stroke="black" points="1116.69,-299.3 1113.19,-289.3 1109.69,-299.3 1116.69,-299.3"/>
</g>
<!-- Step2b_edta -->
<g id="node8" class="node">
<title>Step2b_edta</title>
<polygon fill="none" stroke="black" points="982.4,-404 751.98,-404 751.98,-324 982.4,-324 982.4,-404"/>
<text text-anchor="middle" x="867.19" y="-382" font-family="Times,serif" font-size="20.00">STEP 2b: EDTA &#45; gff2bed</text>
<text text-anchor="middle" x="867.19" y="-358" font-family="Times,serif" font-size="20.00">		Script: edta.sh</text>
<text text-anchor="middle" x="867.19" y="-334" font-family="Times,serif" font-size="20.00">		Output: genome.bed</text>
</g>
<!-- Step2b_edta&#45;&gt;Step2c_edta -->
<g id="edge5" class="edge">
<title>Step2b_edta&#45;&gt;Step2c_edta</title>
<path fill="none" stroke="black" d="M952.19,-323.61C973.51,-313.73 996.52,-303.07 1018.28,-292.98"/>
<polygon fill="black" stroke="black" points="1019.58,-295.77 1027.18,-288.39 1016.64,-289.42 1019.58,-295.77"/>
</g>
<!-- Step2d_edta -->
<g id="node10" class="node">
<title>Step2d_edta</title>
<polygon fill="none" stroke="black" points="1235.5,-172 952.88,-172 952.88,-92 1235.5,-92 1235.5,-172"/>
<text text-anchor="middle" x="1094.19" y="-150" font-family="Times,serif" font-size="20.00">STEP 2d: EDTA &#45; convert to bed</text>
<text text-anchor="middle" x="1094.19" y="-126" font-family="Times,serif" font-size="20.00">		Script: edta.sh</text>
<text text-anchor="middle" x="1094.19" y="-102" font-family="Times,serif" font-size="20.00">		Output: genome_edta.bed</text>
</g>
<!-- Step2c_edta&#45;&gt;Step2d_edta -->
<g id="edge6" class="edge">
<title>Step2c_edta&#45;&gt;Step2d_edta</title>
<path fill="none" stroke="black" d="M1106.65,-207.77C1105.32,-199.8 1103.91,-191.31 1102.53,-183.02"/>
<polygon fill="black" stroke="black" points="1105.84,-182.59 1100.74,-173.3 1098.93,-183.74 1105.84,-182.59"/>
</g>
<!-- Step2d_edta&#45;&gt;Step5_cn -->
<g id="edge13" class="edge">
<title>Step2d_edta&#45;&gt;Step5_cn</title>
<path fill="none" stroke="red" d="M952.56,-93.96C908.87,-82.53 861.31,-70.09 819.61,-59.19"/>
<polygon fill="red" stroke="red" points="820.7,-55.59 810.14,-56.45 818.93,-62.37 820.7,-55.59"/>
</g>
<!-- Step2d_edta&#45;&gt;Step6_cp -->
<g id="edge16" class="edge">
<title>Step2d_edta&#45;&gt;Step6_cp</title>
<path fill="none" stroke="blue" d="M1094.19,-91.56C1094.19,-83.56 1094.19,-75.16 1094.19,-67.2"/>
<polygon fill="blue" stroke="blue" points="1097.69,-67.34 1094.19,-57.34 1090.69,-67.34 1097.69,-67.34"/>
</g>
<!-- Step3_mn&#45;&gt;Step5_cn -->
<g id="edge14" class="edge">
<title>Step3_mn&#45;&gt;Step5_cn</title>
<path fill="none" stroke="red" d="M367.5,-323.97C398.02,-265.94 462.62,-156.81 546.19,-92 562.39,-79.44 581.41,-69.06 600.55,-60.6"/>
<polygon fill="red" stroke="red" points="601.71,-63.48 609.55,-56.35 598.97,-57.04 601.71,-63.48"/>
</g>
<!-- Step4_mp&#45;&gt;Step6_cp -->
<g id="edge17" class="edge">
<title>Step4_mp&#45;&gt;Step6_cp</title>
<path fill="none" stroke="blue" d="M1563,-323.65C1496.55,-267.14 1367,-162.12 1244.19,-92 1223.97,-80.45 1201.21,-69.81 1179.66,-60.69"/>
<polygon fill="blue" stroke="blue" points="1181.1,-57.08 1170.52,-56.47 1178.41,-63.54 1181.1,-57.08"/>
</g>
</g>
</svg>
