<?xml version="1.0" encoding="UTF-8" standalone="no"?>
<!DOCTYPE svg PUBLIC "-//W3C//DTD SVG 1.1//EN"
 "http://www.w3.org/Graphics/SVG/1.1/DTD/svg11.dtd">
<!-- Generated by graphviz version 8.0.5 (0)
 -->
<!-- Title: Pacbio Nanopore Pipeline Pages: 1 -->
<svg width="1731pt" height="656pt"
 viewBox="0.00 0.00 1731.48 656.00" xmlns="http://www.w3.org/2000/svg" xmlns:xlink="http://www.w3.org/1999/xlink">
<g id="graph0" class="graph" transform="scale(1 1) rotate(0) translate(4 652)">
<title>Pacbio Nanopore Pipeline</title>
<polygon fill="white" stroke="none" points="-4,4 -4,-652 1727.48,-652 1727.48,4 -4,4"/>
<text text-anchor="middle" x="861.74" y="-608" font-family="Times,serif" font-size="40.00">Pacbio Nanopore Pipeline</text>
<!-- Input_fasta -->
<g id="node1" class="node">
<title>Input_fasta</title>
<polygon fill="none" stroke="black" points="1062.94,-592 871.44,-592 871.44,-556 1062.94,-556 1062.94,-592"/>
<text text-anchor="middle" x="967.19" y="-568" font-family="Times,serif" font-size="20.00">INPUT: genome.fasta</text>
</g>
<!-- Step1a_trf -->
<g id="node5" class="node">
<title>Step1a_trf</title>
<polygon fill="none" stroke="black" points="1218.41,-404 791.98,-404 791.98,-324 1218.41,-324 1218.41,-404"/>
<text text-anchor="middle" x="1005.19" y="-382" font-family="Times,serif" font-size="20.00">STEP 1a: TRF &#45; process genome and create dat file</text>
<text text-anchor="middle" x="1005.19" y="-358" font-family="Times,serif" font-size="20.00">		Script: trf.sh</text>
<text text-anchor="middle" x="1005.19" y="-334" font-family="Times,serif" font-size="20.00">		Output: genome.fasta.2.7.7.80.10.50.2000.dat</text>
</g>
<!-- Input_fasta&#45;&gt;Step1a_trf -->
<g id="edge1" class="edge">
<title>Input_fasta&#45;&gt;Step1a_trf</title>
<path fill="none" stroke="black" d="M969.07,-555.68C971.97,-530.21 978.06,-481.19 986.19,-440 987.82,-431.75 989.79,-423.06 991.83,-414.62"/>
<polygon fill="black" stroke="black" points="995.42,-415.68 994.44,-405.14 988.63,-413.99 995.42,-415.68"/>
</g>
<!-- Step2a_edta -->
<g id="node7" class="node">
<title>Step2a_edta</title>
<polygon fill="none" stroke="black" points="939.61,-520 714.77,-520 714.77,-440 939.61,-440 939.61,-520"/>
<text text-anchor="middle" x="827.19" y="-498" font-family="Times,serif" font-size="20.00">STEP 2a: EDTA &#45; gffread</text>
<text text-anchor="middle" x="827.19" y="-474" font-family="Times,serif" font-size="20.00">		Script: edta.sh</text>
<text text-anchor="middle" x="827.19" y="-450" font-family="Times,serif" font-size="20.00">		Output: genome_cds.fasta</text>
</g>
<!-- Input_fasta&#45;&gt;Step2a_edta -->
<g id="edge3" class="edge">
<title>Input_fasta&#45;&gt;Step2a_edta</title>
<path fill="none" stroke="black" d="M940.86,-555.7C928.03,-547.26 911.93,-536.69 895.93,-526.17"/>
<polygon fill="black" stroke="black" points="898.35,-522.92 888.07,-520.35 894.51,-528.77 898.35,-522.92"/>
</g>
<!-- Step3_mn -->
<g id="node11" class="node">
<title>Step3_mn</title>
<polygon fill="none" stroke="black" points="696.38,-520 0,-520 0,-440 696.38,-440 696.38,-520"/>
<text text-anchor="middle" x="348.19" y="-498" font-family="Times,serif" font-size="20.00">STEP 3: meth_nanopore</text>
<text text-anchor="middle" x="348.19" y="-474" font-family="Times,serif" font-size="20.00">		Script: meth_bed_nanopore.sh</text>
<text text-anchor="middle" x="348.19" y="-450" font-family="Times,serif" font-size="20.00">		Output: genome_meth.bed, fenome_nano_sorted.bam, genome_nano_sorted.bam.bai</text>
</g>
<!-- Input_fasta&#45;&gt;Step3_mn -->
<g id="edge7" class="edge">
<title>Input_fasta&#45;&gt;Step3_mn</title>
<path fill="none" stroke="black" d="M871.15,-557.24C868.47,-556.82 865.81,-556.41 863.19,-556 789.79,-544.66 710.42,-532.86 636.49,-522.08"/>
<polygon fill="black" stroke="black" points="637.02,-518.48 626.62,-520.5 636.01,-525.4 637.02,-518.48"/>
</g>
<!-- Step4_mp -->
<g id="node12" class="node">
<title>Step4_mp</title>
<polygon fill="none" stroke="black" points="1723.48,-520 994.9,-520 994.9,-440 1723.48,-440 1723.48,-520"/>
<text text-anchor="middle" x="1359.19" y="-498" font-family="Times,serif" font-size="20.00">STEP 4: meth_pacbio</text>
<text text-anchor="middle" x="1359.19" y="-474" font-family="Times,serif" font-size="20.00">		Script: ccsmeth.sh</text>
<text text-anchor="middle" x="1359.19" y="-450" font-family="Times,serif" font-size="20.00">		Output: genome_meth.bed, genome_pacbio_sorted.bam, genome_pacbio_sorted.bam.bai</text>
</g>
<!-- Input_fasta&#45;&gt;Step4_mp -->
<g id="edge8" class="edge">
<title>Input_fasta&#45;&gt;Step4_mp</title>
<path fill="none" stroke="black" d="M1041.38,-555.59C1080.96,-546.3 1131.52,-534.43 1180.61,-522.91"/>
<polygon fill="black" stroke="black" points="1181.12,-526.15 1190.06,-520.46 1179.52,-519.34 1181.12,-526.15"/>
</g>
<!-- Input_gff3 -->
<g id="node2" class="node">
<title>Input_gff3</title>
<polygon fill="none" stroke="black" points="853.73,-592 666.65,-592 666.65,-556 853.73,-556 853.73,-592"/>
<text text-anchor="middle" x="760.19" y="-568" font-family="Times,serif" font-size="20.00">INPUT: genome.gff3</text>
</g>
<!-- Input_gff3&#45;&gt;Step2a_edta -->
<g id="edge9" class="edge">
<title>Input_gff3&#45;&gt;Step2a_edta</title>
<path fill="none" stroke="black" d="M772.79,-555.7C778.36,-548.04 785.22,-538.63 792.17,-529.09"/>
<polygon fill="black" stroke="black" points="795.48,-531.49 798.53,-521.35 789.82,-527.37 795.48,-531.49"/>
</g>
<!-- Input_fastq -->
<g id="node3" class="node">
<title>Input_fastq</title>
<polygon fill="none" stroke="black" points="486.71,-592 209.67,-592 209.67,-556 486.71,-556 486.71,-592"/>
<text text-anchor="middle" x="348.19" y="-568" font-family="Times,serif" font-size="20.00">INPUT: genome_nanopore.fastq</text>
</g>
<!-- Input_fastq&#45;&gt;Step3_mn -->
<g id="edge10" class="edge">
<title>Input_fastq&#45;&gt;Step3_mn</title>
<path fill="none" stroke="black" d="M348.19,-555.7C348.19,-548.59 348.19,-539.96 348.19,-531.13"/>
<polygon fill="black" stroke="black" points="351.69,-531.35 348.19,-521.35 344.69,-531.35 351.69,-531.35"/>
</g>
<!-- Input_bam -->
<g id="node4" class="node">
<title>Input_bam</title>
<polygon fill="none" stroke="black" points="1518.54,-592 1199.84,-592 1199.84,-556 1518.54,-556 1518.54,-592"/>
<text text-anchor="middle" x="1359.19" y="-568" font-family="Times,serif" font-size="20.00">INPUT: genome_pacbio.subread.bam</text>
</g>
<!-- Input_bam&#45;&gt;Step4_mp -->
<g id="edge11" class="edge">
<title>Input_bam&#45;&gt;Step4_mp</title>
<path fill="none" stroke="black" d="M1359.19,-555.7C1359.19,-548.59 1359.19,-539.96 1359.19,-531.13"/>
<polygon fill="black" stroke="black" points="1362.69,-531.35 1359.19,-521.35 1355.69,-531.35 1362.69,-531.35"/>
</g>
<!-- Step1b_trf -->
<g id="node6" class="node">
<title>Step1b_trf</title>
<polygon fill="none" stroke="black" points="1154.01,-172 856.38,-172 856.38,-92 1154.01,-92 1154.01,-172"/>
<text text-anchor="middle" x="1005.19" y="-150" font-family="Times,serif" font-size="20.00">STEP 1b: TRF &#45; convert to bed file</text>
<text text-anchor="middle" x="1005.19" y="-126" font-family="Times,serif" font-size="20.00">		Script: trf.sh</text>
<text text-anchor="middle" x="1005.19" y="-102" font-family="Times,serif" font-size="20.00">		Output: genome_trf.bed</text>
</g>
<!-- Step1a_trf&#45;&gt;Step1b_trf -->
<g id="edge2" class="edge">
<title>Step1a_trf&#45;&gt;Step1b_trf</title>
<path fill="none" stroke="black" d="M1005.19,-323.72C1005.19,-284.86 1005.19,-225.22 1005.19,-182.99"/>
<polygon fill="black" stroke="black" points="1008.69,-183.12 1005.19,-173.12 1001.69,-183.12 1008.69,-183.12"/>
</g>
<!-- Step5_cn -->
<g id="node13" class="node">
<title>Step5_cn</title>
<polygon fill="none" stroke="black" points="828.14,-56 482.24,-56 482.24,0 828.14,0 828.14,-56"/>
<text text-anchor="middle" x="655.19" y="-34" font-family="Times,serif" font-size="20.00">STEP 5: centromere_nanopore</text>
<text text-anchor="middle" x="655.19" y="-10" font-family="Times,serif" font-size="20.00">		Script: centromere_pipeline_nanopore.sh</text>
</g>
<!-- Step1b_trf&#45;&gt;Step5_cn -->
<g id="edge12" class="edge">
<title>Step1b_trf&#45;&gt;Step5_cn</title>
<path fill="none" stroke="red" d="M869.87,-91.56C833.44,-80.95 794.58,-69.62 760.08,-59.57"/>
<polygon fill="red" stroke="red" points="761.1,-55.93 750.52,-56.49 759.14,-62.65 761.1,-55.93"/>
</g>
<!-- Step6_cp -->
<g id="node14" class="node">
<title>Step6_cp</title>
<polygon fill="none" stroke="black" points="1170.58,-56 845.8,-56 845.8,0 1170.58,0 1170.58,-56"/>
<text text-anchor="middle" x="1008.19" y="-34" font-family="Times,serif" font-size="20.00">STEP 6: centromere_pacbio</text>
<text text-anchor="middle" x="1008.19" y="-10" font-family="Times,serif" font-size="20.00">		Script: centromere_pipeline_pacbio.sh</text>
</g>
<!-- Step1b_trf&#45;&gt;Step6_cp -->
<g id="edge15" class="edge">
<title>Step1b_trf&#45;&gt;Step6_cp</title>
<path fill="none" stroke="blue" d="M1006.35,-91.56C1006.59,-83.56 1006.83,-75.16 1007.07,-67.2"/>
<polygon fill="blue" stroke="blue" points="1010.59,-67.43 1007.39,-57.34 1003.59,-67.23 1010.59,-67.43"/>
</g>
<!-- Step2b_edta -->
<g id="node8" class="node">
<title>Step2b_edta</title>
<polygon fill="none" stroke="black" points="774.4,-404 543.98,-404 543.98,-324 774.4,-324 774.4,-404"/>
<text text-anchor="middle" x="659.19" y="-382" font-family="Times,serif" font-size="20.00">STEP 2b: EDTA &#45; gff2bed</text>
<text text-anchor="middle" x="659.19" y="-358" font-family="Times,serif" font-size="20.00">		Script: edta.sh</text>
<text text-anchor="middle" x="659.19" y="-334" font-family="Times,serif" font-size="20.00">		Output: genome.bed</text>
</g>
<!-- Step2a_edta&#45;&gt;Step2b_edta -->
<g id="edge4" class="edge">
<title>Step2a_edta&#45;&gt;Step2b_edta</title>
<path fill="none" stroke="black" d="M769.37,-439.77C755.46,-430.33 740.48,-420.16 726.19,-410.47"/>
<polygon fill="black" stroke="black" points="728.64,-407.22 718.4,-404.5 724.71,-413.01 728.64,-407.22"/>
</g>
<!-- Step2c_edta -->
<g id="node9" class="node">
<title>Step2c_edta</title>
<polygon fill="none" stroke="black" points="854.92,-288 463.46,-288 463.46,-208 854.92,-208 854.92,-288"/>
<text text-anchor="middle" x="659.19" y="-266" font-family="Times,serif" font-size="20.00">STEP 2c: EDTA &#45; annotate TEs</text>
<text text-anchor="middle" x="659.19" y="-242" font-family="Times,serif" font-size="20.00">		Script: edta.sh</text>
<text text-anchor="middle" x="659.19" y="-218" font-family="Times,serif" font-size="20.00">		Output: genome.fasta.mod.EDTA.TEanno.gffs</text>
</g>
<!-- Step2b_edta&#45;&gt;Step2c_edta -->
<g id="edge5" class="edge">
<title>Step2b_edta&#45;&gt;Step2c_edta</title>
<path fill="none" stroke="black" d="M659.19,-323.77C659.19,-315.89 659.19,-307.5 659.19,-299.3"/>
<polygon fill="black" stroke="black" points="662.69,-299.3 659.19,-289.3 655.69,-299.3 662.69,-299.3"/>
</g>
<!-- Step2d_edta -->
<g id="node10" class="node">
<title>Step2d_edta</title>
<polygon fill="none" stroke="black" points="800.5,-172 517.88,-172 517.88,-92 800.5,-92 800.5,-172"/>
<text text-anchor="middle" x="659.19" y="-150" font-family="Times,serif" font-size="20.00">STEP 2d: EDTA &#45; convert to bed</text>
<text text-anchor="middle" x="659.19" y="-126" font-family="Times,serif" font-size="20.00">		Script: edta.sh</text>
<text text-anchor="middle" x="659.19" y="-102" font-family="Times,serif" font-size="20.00">		Output: genome_edta.bed</text>
</g>
<!-- Step2c_edta&#45;&gt;Step2d_edta -->
<g id="edge6" class="edge">
<title>Step2c_edta&#45;&gt;Step2d_edta</title>
<path fill="none" stroke="black" d="M659.19,-207.77C659.19,-199.89 659.19,-191.5 659.19,-183.3"/>
<polygon fill="black" stroke="black" points="662.69,-183.3 659.19,-173.3 655.69,-183.3 662.69,-183.3"/>
</g>
<!-- Step2d_edta&#45;&gt;Step5_cn -->
<g id="edge13" class="edge">
<title>Step2d_edta&#45;&gt;Step5_cn</title>
<path fill="none" stroke="red" d="M657.64,-91.56C657.33,-83.56 657,-75.16 656.69,-67.2"/>
<polygon fill="red" stroke="red" points="660.15,-67.19 656.26,-57.34 653.16,-67.46 660.15,-67.19"/>
</g>
<!-- Step2d_edta&#45;&gt;Step6_cp -->
<g id="edge16" class="edge">
<title>Step2d_edta&#45;&gt;Step6_cp</title>
<path fill="none" stroke="blue" d="M794.12,-91.56C830.45,-80.95 869.2,-69.62 903.6,-59.57"/>
<polygon fill="blue" stroke="blue" points="904.52,-62.65 913.13,-56.49 902.55,-55.94 904.52,-62.65"/>
</g>
<!-- Step3_mn&#45;&gt;Step5_cn -->
<g id="edge14" class="edge">
<title>Step3_mn&#45;&gt;Step5_cn</title>
<path fill="none" stroke="red" d="M353.97,-439.75C367.32,-362.62 407.35,-190.3 509.19,-92 522.14,-79.5 537.97,-69.28 554.36,-60.99"/>
<polygon fill="red" stroke="red" points="555.57,-63.81 563.06,-56.33 552.53,-57.5 555.57,-63.81"/>
</g>
<!-- Step4_mp&#45;&gt;Step6_cp -->
<g id="edge17" class="edge">
<title>Step4_mp&#45;&gt;Step6_cp</title>
<path fill="none" stroke="blue" d="M1349.27,-439.61C1327.97,-362.62 1270.83,-191.08 1163.19,-92 1149.49,-79.38 1132.92,-69.14 1115.79,-60.86"/>
<polygon fill="blue" stroke="blue" points="1117.78,-57.46 1107.23,-56.46 1114.85,-63.82 1117.78,-57.46"/>
</g>
</g>
</svg>
