<?xml version="1.0" encoding="UTF-8" standalone="no"?>
<!DOCTYPE svg PUBLIC "-//W3C//DTD SVG 1.1//EN"
 "http://www.w3.org/Graphics/SVG/1.1/DTD/svg11.dtd">
<!-- Generated by graphviz version 8.0.5 (0)
 -->
<!-- Title: Pacbio Nanopore Pipeline Pages: 1 -->
<svg width="2110pt" height="752pt"
 viewBox="0.00 0.00 2110.21 752.00" xmlns="http://www.w3.org/2000/svg" xmlns:xlink="http://www.w3.org/1999/xlink">
<g id="graph0" class="graph" transform="scale(1 1) rotate(0) translate(4 748)">
<title>Pacbio Nanopore Pipeline</title>
<polygon fill="white" stroke="none" points="-4,4 -4,-748 2106.21,-748 2106.21,4 -4,4"/>
<text text-anchor="middle" x="1051.1" y="-704" font-family="Times,serif" font-size="40.00">Pacbio Nanopore Pipeline</text>
<!-- Input_fasta -->
<g id="node1" class="node">
<title>Input_fasta</title>
<polygon fill="none" stroke="black" points="1284.96,-688 1093.45,-688 1093.45,-652 1284.96,-652 1284.96,-688"/>
<text text-anchor="middle" x="1189.21" y="-664" font-family="Times,serif" font-size="20.00">INPUT: genome.fasta</text>
</g>
<!-- Step1a_trf -->
<g id="node5" class="node">
<title>Step1a_trf</title>
<polygon fill="none" stroke="black" points="1321.42,-464 894.99,-464 894.99,-384 1321.42,-384 1321.42,-464"/>
<text text-anchor="middle" x="1108.21" y="-442" font-family="Times,serif" font-size="20.00">STEP 1a: TRF &#45; process genome and create dat file</text>
<text text-anchor="middle" x="1108.21" y="-418" font-family="Times,serif" font-size="20.00">		Script: trf.sh</text>
<text text-anchor="middle" x="1108.21" y="-394" font-family="Times,serif" font-size="20.00">		Output: genome.fasta.2.7.7.80.10.50.2000.dat</text>
</g>
<!-- Input_fasta&#45;&gt;Step1a_trf -->
<g id="edge1" class="edge">
<title>Input_fasta&#45;&gt;Step1a_trf</title>
<path fill="none" stroke="black" d="M1206.94,-651.6C1215.45,-642 1224.74,-629.34 1229.21,-616 1243.89,-572.17 1250.29,-553.13 1229.21,-512 1221.02,-496.03 1208.38,-482.32 1194.3,-470.83"/>
<polygon fill="black" stroke="black" points="1196.93,-467.66 1186.88,-464.31 1192.65,-473.2 1196.93,-467.66"/>
</g>
<!-- Step2a_edta -->
<g id="node7" class="node">
<title>Step2a_edta</title>
<polygon fill="none" stroke="black" points="473.63,-604 248.79,-604 248.79,-524 473.63,-524 473.63,-604"/>
<text text-anchor="middle" x="361.21" y="-582" font-family="Times,serif" font-size="20.00">STEP 2a: EDTA &#45; get cds</text>
<text text-anchor="middle" x="361.21" y="-558" font-family="Times,serif" font-size="20.00">		Script: edta.sh</text>
<text text-anchor="middle" x="361.21" y="-534" font-family="Times,serif" font-size="20.00">		Output: genome_cds.fasta</text>
</g>
<!-- Input_fasta&#45;&gt;Step2a_edta -->
<g id="edge3" class="edge">
<title>Input_fasta&#45;&gt;Step2a_edta</title>
<path fill="none" stroke="black" d="M1093.29,-658.52C1070.65,-656.22 1046.59,-653.9 1024.21,-652 784.09,-631.65 717.77,-671.22 483.21,-616 474.2,-613.88 465,-611.16 455.89,-608.09"/>
<polygon fill="black" stroke="black" points="457.26,-604.5 446.67,-604.48 454.93,-611.11 457.26,-604.5"/>
</g>
<!-- Step3a_mn -->
<g id="node11" class="node">
<title>Step3a_mn</title>
<polygon fill="none" stroke="black" points="2102.21,-616 1276.21,-616 1276.21,-512 2102.21,-512 2102.21,-616"/>
<text text-anchor="middle" x="1689.21" y="-594" font-family="Times,serif" font-size="20.00">STEP 3a: meth_nanopore &#45; minimap2</text>
<text text-anchor="middle" x="1689.21" y="-570" font-family="Times,serif" font-size="20.00">		Script: meth_bed_nanopore.sh</text>
<text text-anchor="middle" x="1689.21" y="-546" font-family="Times,serif" font-size="20.00"> &#160;&#160;&#160;&#160;&#160;&#160;&#160;&#160;&#160;&#160;&#160;&#160;&#160;&#160;&#160;Run: minimap2 &#45;t &#39;$THREADS&#39; &#45;ax map&#45;ont &#45;Y genome.fasta genome.fastq &gt; genome.sam</text>
<text text-anchor="middle" x="1689.21" y="-522" font-family="Times,serif" font-size="20.00">		Output: genome.sam</text>
</g>
<!-- Input_fasta&#45;&gt;Step3a_mn -->
<g id="edge7" class="edge">
<title>Input_fasta&#45;&gt;Step3a_mn</title>
<path fill="none" stroke="black" d="M1273.18,-651.53C1317.24,-642.37 1373.85,-630.59 1431.03,-618.7"/>
<polygon fill="black" stroke="black" points="1431.64,-621.94 1440.72,-616.48 1430.21,-615.09 1431.64,-621.94"/>
</g>
<!-- Step4_mp -->
<g id="node15" class="node">
<title>Step4_mp</title>
<polygon fill="none" stroke="black" points="1220.5,-604 491.91,-604 491.91,-524 1220.5,-524 1220.5,-604"/>
<text text-anchor="middle" x="856.21" y="-582" font-family="Times,serif" font-size="20.00">STEP 4: meth_pacbio</text>
<text text-anchor="middle" x="856.21" y="-558" font-family="Times,serif" font-size="20.00">		Script: ccsmeth.sh</text>
<text text-anchor="middle" x="856.21" y="-534" font-family="Times,serif" font-size="20.00">		Output: genome_meth.bed, genome_pacbio_sorted.bam, genome_pacbio_sorted.bam.bai</text>
</g>
<!-- Input_fasta&#45;&gt;Step4_mp -->
<g id="edge8" class="edge">
<title>Input_fasta&#45;&gt;Step4_mp</title>
<path fill="none" stroke="black" d="M1133.47,-651.59C1095.01,-639.58 1042.12,-623.06 992.84,-607.67"/>
<polygon fill="black" stroke="black" points="993.97,-604.05 983.38,-604.41 991.88,-610.73 993.97,-604.05"/>
</g>
<!-- Input_gff3 -->
<g id="node2" class="node">
<title>Input_gff3</title>
<polygon fill="none" stroke="black" points="454.74,-688 267.67,-688 267.67,-652 454.74,-652 454.74,-688"/>
<text text-anchor="middle" x="361.21" y="-664" font-family="Times,serif" font-size="20.00">INPUT: genome.gff3</text>
</g>
<!-- Input_gff3&#45;&gt;Step2a_edta -->
<g id="edge9" class="edge">
<title>Input_gff3&#45;&gt;Step2a_edta</title>
<path fill="none" stroke="black" d="M361.21,-651.83C361.21,-641.73 361.21,-628.39 361.21,-615.21"/>
<polygon fill="black" stroke="black" points="364.71,-615.24 361.21,-605.24 357.71,-615.24 364.71,-615.24"/>
</g>
<!-- Input_fastq -->
<g id="node3" class="node">
<title>Input_fastq</title>
<polygon fill="none" stroke="black" points="1827.73,-688 1550.68,-688 1550.68,-652 1827.73,-652 1827.73,-688"/>
<text text-anchor="middle" x="1689.21" y="-664" font-family="Times,serif" font-size="20.00">INPUT: genome_nanopore.fastq</text>
</g>
<!-- Input_fastq&#45;&gt;Step3a_mn -->
<g id="edge10" class="edge">
<title>Input_fastq&#45;&gt;Step3a_mn</title>
<path fill="none" stroke="black" d="M1689.21,-651.83C1689.21,-644.78 1689.21,-636.15 1689.21,-627.09"/>
<polygon fill="black" stroke="black" points="1692.71,-627.34 1689.21,-617.34 1685.71,-627.34 1692.71,-627.34"/>
</g>
<!-- Input_bam -->
<g id="node4" class="node">
<title>Input_bam</title>
<polygon fill="none" stroke="black" points="1015.55,-688 696.86,-688 696.86,-652 1015.55,-652 1015.55,-688"/>
<text text-anchor="middle" x="856.21" y="-664" font-family="Times,serif" font-size="20.00">INPUT: genome_pacbio.subread.bam</text>
</g>
<!-- Input_bam&#45;&gt;Step4_mp -->
<g id="edge14" class="edge">
<title>Input_bam&#45;&gt;Step4_mp</title>
<path fill="none" stroke="black" d="M856.21,-651.83C856.21,-641.73 856.21,-628.39 856.21,-615.21"/>
<polygon fill="black" stroke="black" points="859.71,-615.24 856.21,-605.24 852.71,-615.24 859.71,-615.24"/>
</g>
<!-- Step1b_trf -->
<g id="node6" class="node">
<title>Step1b_trf</title>
<polygon fill="none" stroke="black" points="1237.02,-324 939.39,-324 939.39,-244 1237.02,-244 1237.02,-324"/>
<text text-anchor="middle" x="1088.21" y="-302" font-family="Times,serif" font-size="20.00">STEP 1b: TRF &#45; convert to bed file</text>
<text text-anchor="middle" x="1088.21" y="-278" font-family="Times,serif" font-size="20.00">		Script: trf.sh</text>
<text text-anchor="middle" x="1088.21" y="-254" font-family="Times,serif" font-size="20.00">		Output: genome_trf.bed</text>
</g>
<!-- Step1a_trf&#45;&gt;Step1b_trf -->
<g id="edge2" class="edge">
<title>Step1a_trf&#45;&gt;Step1b_trf</title>
<path fill="none" stroke="black" d="M1102.53,-383.82C1100.33,-368.67 1097.79,-351.15 1095.47,-335.1"/>
<polygon fill="black" stroke="black" points="1098.8,-334.67 1093.9,-325.27 1091.87,-335.67 1098.8,-334.67"/>
</g>
<!-- Step5_cn -->
<g id="node16" class="node">
<title>Step5_cn</title>
<polygon fill="none" stroke="black" points="1261.15,-56 915.26,-56 915.26,0 1261.15,0 1261.15,-56"/>
<text text-anchor="middle" x="1088.21" y="-34" font-family="Times,serif" font-size="20.00">STEP 5: centromere_nanopore</text>
<text text-anchor="middle" x="1088.21" y="-10" font-family="Times,serif" font-size="20.00">		Script: centromere_pipeline_nanopore.sh</text>
</g>
<!-- Step1b_trf&#45;&gt;Step5_cn -->
<g id="edge15" class="edge">
<title>Step1b_trf&#45;&gt;Step5_cn</title>
<path fill="none" stroke="red" d="M1088.21,-243.59C1088.21,-195.47 1088.21,-114.65 1088.21,-67.12"/>
<polygon fill="red" stroke="red" points="1091.71,-67.37 1088.21,-57.37 1084.71,-67.37 1091.71,-67.37"/>
</g>
<!-- Step6_cp -->
<g id="node17" class="node">
<title>Step6_cp</title>
<polygon fill="none" stroke="black" points="1030.6,-172 705.81,-172 705.81,-116 1030.6,-116 1030.6,-172"/>
<text text-anchor="middle" x="868.21" y="-150" font-family="Times,serif" font-size="20.00">STEP 6: centromere_pacbio</text>
<text text-anchor="middle" x="868.21" y="-126" font-family="Times,serif" font-size="20.00">		Script: centromere_pipeline_pacbio.sh</text>
</g>
<!-- Step1b_trf&#45;&gt;Step6_cp -->
<g id="edge18" class="edge">
<title>Step1b_trf&#45;&gt;Step6_cp</title>
<path fill="none" stroke="blue" d="M1025.46,-243.64C992.4,-222.9 952.31,-197.75 920.88,-178.04"/>
<polygon fill="blue" stroke="blue" points="923.17,-174.72 912.84,-172.37 919.45,-180.65 923.17,-174.72"/>
</g>
<!-- Step2c_edta -->
<g id="node9" class="node">
<title>Step2c_edta</title>
<polygon fill="none" stroke="black" points="556.94,-464 165.47,-464 165.47,-384 556.94,-384 556.94,-464"/>
<text text-anchor="middle" x="361.21" y="-442" font-family="Times,serif" font-size="20.00">STEP 2c: EDTA &#45; annotate TEs</text>
<text text-anchor="middle" x="361.21" y="-418" font-family="Times,serif" font-size="20.00">		Script: edta.sh</text>
<text text-anchor="middle" x="361.21" y="-394" font-family="Times,serif" font-size="20.00">		Output: genome.fasta.mod.EDTA.TEanno.gffs</text>
</g>
<!-- Step2a_edta&#45;&gt;Step2c_edta -->
<g id="edge4" class="edge">
<title>Step2a_edta&#45;&gt;Step2c_edta</title>
<path fill="none" stroke="black" d="M361.21,-523.82C361.21,-508.67 361.21,-491.15 361.21,-475.1"/>
<polygon fill="black" stroke="black" points="364.71,-475.27 361.21,-465.27 357.71,-475.27 364.71,-475.27"/>
</g>
<!-- Step2b_edta -->
<g id="node8" class="node">
<title>Step2b_edta</title>
<polygon fill="none" stroke="black" points="230.41,-604 0,-604 0,-524 230.41,-524 230.41,-604"/>
<text text-anchor="middle" x="115.21" y="-582" font-family="Times,serif" font-size="20.00">STEP 2b: EDTA &#45; gff2bed</text>
<text text-anchor="middle" x="115.21" y="-558" font-family="Times,serif" font-size="20.00">		Script: edta.sh</text>
<text text-anchor="middle" x="115.21" y="-534" font-family="Times,serif" font-size="20.00">		Output: genome.bed</text>
</g>
<!-- Step2b_edta&#45;&gt;Step2c_edta -->
<g id="edge5" class="edge">
<title>Step2b_edta&#45;&gt;Step2c_edta</title>
<path fill="none" stroke="black" d="M185.37,-523.64C215.36,-506.82 250.52,-487.09 281.48,-469.72"/>
<polygon fill="black" stroke="black" points="282.94,-472.36 289.95,-464.41 279.52,-466.25 282.94,-472.36"/>
</g>
<!-- Step2d_edta -->
<g id="node10" class="node">
<title>Step2d_edta</title>
<polygon fill="none" stroke="black" points="819.52,-324 536.9,-324 536.9,-244 819.52,-244 819.52,-324"/>
<text text-anchor="middle" x="678.21" y="-302" font-family="Times,serif" font-size="20.00">STEP 2d: EDTA &#45; convert to bed</text>
<text text-anchor="middle" x="678.21" y="-278" font-family="Times,serif" font-size="20.00">		Script: edta.sh</text>
<text text-anchor="middle" x="678.21" y="-254" font-family="Times,serif" font-size="20.00">		Output: genome_edta.bed</text>
</g>
<!-- Step2c_edta&#45;&gt;Step2d_edta -->
<g id="edge6" class="edge">
<title>Step2c_edta&#45;&gt;Step2d_edta</title>
<path fill="none" stroke="black" d="M451.62,-383.64C491.01,-366.49 537.33,-346.33 577.79,-328.71"/>
<polygon fill="black" stroke="black" points="578.9,-331.61 586.67,-324.41 576.11,-325.2 578.9,-331.61"/>
</g>
<!-- Step2d_edta&#45;&gt;Step5_cn -->
<g id="edge16" class="edge">
<title>Step2d_edta&#45;&gt;Step5_cn</title>
<path fill="none" stroke="red" d="M669.54,-243.71C662.56,-200.63 659.3,-132.28 697.21,-92 726.1,-61.3 817.04,-45.55 903.95,-37.48"/>
<polygon fill="red" stroke="red" points="904.15,-40.89 913.8,-36.51 903.53,-33.92 904.15,-40.89"/>
</g>
<!-- Step2d_edta&#45;&gt;Step6_cp -->
<g id="edge19" class="edge">
<title>Step2d_edta&#45;&gt;Step6_cp</title>
<path fill="none" stroke="blue" d="M732.4,-243.64C760.58,-223.17 794.68,-198.4 821.66,-178.81"/>
<polygon fill="blue" stroke="blue" points="823.49,-181.08 829.52,-172.37 819.37,-175.42 823.49,-181.08"/>
</g>
<!-- Step3b_mn -->
<g id="node12" class="node">
<title>Step3b_mn</title>
<polygon fill="none" stroke="black" points="2028.37,-476 1344.04,-476 1344.04,-372 2028.37,-372 2028.37,-476"/>
<text text-anchor="middle" x="1686.21" y="-454" font-family="Times,serif" font-size="20.00">STEP 3b: meth_nanopore &#45; samtools_sort</text>
<text text-anchor="middle" x="1686.21" y="-430" font-family="Times,serif" font-size="20.00">		Script: meth_bed_nanopore.sh</text>
<text text-anchor="middle" x="1686.21" y="-406" font-family="Times,serif" font-size="20.00"> &#160;&#160;&#160;&#160;&#160;&#160;&#160;&#160;&#160;&#160;&#160;&#160;&#160;&#160;&#160;Run: samtools sort &#45;@ &#39;$THREADS&#39; &#45;o genome_sorted.bam genome.sam</text>
<text text-anchor="middle" x="1686.21" y="-382" font-family="Times,serif" font-size="20.00">		Output: genome_sorted.bam</text>
</g>
<!-- Step3a_mn&#45;&gt;Step3b_mn -->
<g id="edge11" class="edge">
<title>Step3a_mn&#45;&gt;Step3b_mn</title>
<path fill="none" stroke="black" d="M1688.09,-511.61C1687.92,-503.71 1687.74,-495.48 1687.56,-487.37"/>
<polygon fill="black" stroke="black" points="1691.04,-487.35 1687.33,-477.43 1684.04,-487.5 1691.04,-487.35"/>
</g>
<!-- Step3c_mn -->
<g id="node13" class="node">
<title>Step3c_mn</title>
<polygon fill="none" stroke="black" points="1810.74,-336 1383.67,-336 1383.67,-232 1810.74,-232 1810.74,-336"/>
<text text-anchor="middle" x="1597.21" y="-314" font-family="Times,serif" font-size="20.00">STEP 3c: meth_nanopore &#45; samtools_index</text>
<text text-anchor="middle" x="1597.21" y="-290" font-family="Times,serif" font-size="20.00">		Script: meth_bed_nanopore.sh</text>
<text text-anchor="middle" x="1597.21" y="-266" font-family="Times,serif" font-size="20.00"> &#160;&#160;&#160;&#160;&#160;&#160;&#160;&#160;&#160;&#160;&#160;&#160;&#160;&#160;&#160;Run: samtools index genome_sorted.bam</text>
<text text-anchor="middle" x="1597.21" y="-242" font-family="Times,serif" font-size="20.00">		Output: genome_sorted.bam.bai</text>
</g>
<!-- Step3b_mn&#45;&gt;Step3c_mn -->
<g id="edge12" class="edge">
<title>Step3b_mn&#45;&gt;Step3c_mn</title>
<path fill="none" stroke="black" d="M1653.07,-371.61C1647.56,-363.08 1641.81,-354.17 1636.18,-345.44"/>
<polygon fill="black" stroke="black" points="1638.74,-343.94 1630.38,-337.43 1632.85,-347.73 1638.74,-343.94"/>
</g>
<!-- Step3d_mn -->
<g id="node14" class="node">
<title>Step3d_mn</title>
<polygon fill="none" stroke="black" points="1848.94,-196 1193.47,-196 1193.47,-92 1848.94,-92 1848.94,-196"/>
<text text-anchor="middle" x="1521.21" y="-174" font-family="Times,serif" font-size="20.00">STEP 3d: meth_nanopore &#45; modbam2bed</text>
<text text-anchor="middle" x="1521.21" y="-150" font-family="Times,serif" font-size="20.00">		Script: meth_bed_nanopore.sh</text>
<text text-anchor="middle" x="1521.21" y="-126" font-family="Times,serif" font-size="20.00"> &#160;&#160;&#160;&#160;&#160;&#160;&#160;&#160;&#160;&#160;&#160;&#160;&#160;&#160;&#160;Run: ./modbam2bed genome.fasta genome_sorted.bam &gt; genome.bed</text>
<text text-anchor="middle" x="1521.21" y="-102" font-family="Times,serif" font-size="20.00">		Output: genome_methyl.bed</text>
</g>
<!-- Step3c_mn&#45;&gt;Step3d_mn -->
<g id="edge13" class="edge">
<title>Step3c_mn&#45;&gt;Step3d_mn</title>
<path fill="none" stroke="black" d="M1568.91,-231.61C1564.31,-223.26 1559.51,-214.54 1554.79,-205.99"/>
<polygon fill="black" stroke="black" points="1557.42,-204.5 1549.53,-197.43 1551.29,-207.88 1557.42,-204.5"/>
</g>
<!-- Step3d_mn&#45;&gt;Step5_cn -->
<g id="edge17" class="edge">
<title>Step3d_mn&#45;&gt;Step5_cn</title>
<path fill="none" stroke="red" d="M1325.61,-91.5C1283.72,-80.47 1240.77,-69.17 1203.12,-59.25"/>
<polygon fill="red" stroke="red" points="1204.21,-55.66 1193.65,-56.5 1202.43,-62.43 1204.21,-55.66"/>
</g>
<!-- Step4_mp&#45;&gt;Step6_cp -->
<g id="edge20" class="edge">
<title>Step4_mp&#45;&gt;Step6_cp</title>
<path fill="none" stroke="blue" d="M857.34,-523.68C859.64,-443.58 864.84,-262.42 867.11,-183.24"/>
<polygon fill="blue" stroke="blue" points="870.63,-183.42 867.42,-173.32 863.64,-183.22 870.63,-183.42"/>
</g>
</g>
</svg>
