<?xml version="1.0" encoding="UTF-8" standalone="no"?>
<!DOCTYPE svg PUBLIC "-//W3C//DTD SVG 1.1//EN"
 "http://www.w3.org/Graphics/SVG/1.1/DTD/svg11.dtd">
<!-- Generated by graphviz version 8.0.5 (0)
 -->
<!-- Title: snakemake_dag Pages: 1 -->
<svg width="1751pt" height="548pt"
 viewBox="0.00 0.00 1751.00 548.00" xmlns="http://www.w3.org/2000/svg" xmlns:xlink="http://www.w3.org/1999/xlink">
<g id="graph0" class="graph" transform="scale(1 1) rotate(0) translate(4 544)">
<title>snakemake_dag</title>
<polygon fill="white" stroke="none" points="-4,4 -4,-544 1747,-544 1747,4 -4,4"/>
<!-- 0 -->
<g id="node1" class="node">
<title>0</title>
<path fill="none" stroke="#569ad8" stroke-width="2" d="M422,-36C422,-36 290,-36 290,-36 284,-36 278,-30 278,-24 278,-24 278,-12 278,-12 278,-6 284,0 290,0 290,0 422,0 422,0 428,0 434,-6 434,-12 434,-12 434,-24 434,-24 434,-30 428,-36 422,-36"/>
<text text-anchor="middle" x="356" y="-14.5" font-family="sans" font-size="10.00">centromere_scoring_python</text>
</g>
<!-- 1 -->
<g id="node2" class="node">
<title>1</title>
<path fill="none" stroke="#d85656" stroke-width="2" d="M809.5,-108C809.5,-108 622.5,-108 622.5,-108 616.5,-108 610.5,-102 610.5,-96 610.5,-96 610.5,-84 610.5,-84 610.5,-78 616.5,-72 622.5,-72 622.5,-72 809.5,-72 809.5,-72 815.5,-72 821.5,-78 821.5,-84 821.5,-84 821.5,-96 821.5,-96 821.5,-102 815.5,-108 809.5,-108"/>
<text text-anchor="middle" x="716" y="-86.5" font-family="sans" font-size="10.00">centromere_scoring_combine_features</text>
</g>
<!-- 1&#45;&gt;0 -->
<g id="edge1" class="edge">
<title>1&#45;&gt;0</title>
<path fill="none" stroke="grey" stroke-width="2" d="M623.76,-71.06C569.66,-60.55 501.56,-47.3 447.58,-36.81"/>
<polygon fill="grey" stroke="grey" stroke-width="2" points="447.36,-32.81 436.88,-34.34 446.03,-39.68 447.36,-32.81"/>
</g>
<!-- 2 -->
<g id="node3" class="node">
<title>2</title>
<path fill="none" stroke="#d87556" stroke-width="2" stroke-dasharray="5,2" d="M822.5,-252C822.5,-252 649.5,-252 649.5,-252 643.5,-252 637.5,-246 637.5,-240 637.5,-240 637.5,-228 637.5,-228 637.5,-222 643.5,-216 649.5,-216 649.5,-216 822.5,-216 822.5,-216 828.5,-216 834.5,-222 834.5,-228 834.5,-228 834.5,-240 834.5,-240 834.5,-246 828.5,-252 822.5,-252"/>
<text text-anchor="middle" x="736" y="-236.5" font-family="sans" font-size="10.00">centromere_scoring_make_windows</text>
<text text-anchor="middle" x="736" y="-224.5" font-family="sans" font-size="10.00">window: 1000</text>
</g>
<!-- 2&#45;&gt;1 -->
<g id="edge3" class="edge">
<title>2&#45;&gt;1</title>
<path fill="none" stroke="grey" stroke-width="2" d="M688.1,-215.12C672.83,-206.88 657.66,-195.42 649,-180 641.16,-166.05 642.03,-158.4 649,-144 654.17,-133.31 662.66,-124.13 671.89,-116.55"/>
<polygon fill="grey" stroke="grey" stroke-width="2" points="674.14,-118.75 680.06,-109.96 669.95,-113.13 674.14,-118.75"/>
</g>
<!-- 4 -->
<g id="node5" class="node">
<title>4</title>
<path fill="none" stroke="#68d856" stroke-width="2" stroke-dasharray="5,2" d="M1731,-180C1731,-180 1563,-180 1563,-180 1557,-180 1551,-174 1551,-168 1551,-168 1551,-156 1551,-156 1551,-150 1557,-144 1563,-144 1563,-144 1731,-144 1731,-144 1737,-144 1743,-150 1743,-156 1743,-156 1743,-168 1743,-168 1743,-174 1737,-180 1731,-180"/>
<text text-anchor="middle" x="1647" y="-158.5" font-family="sans" font-size="10.00">centromere_scoring_TRF_coverage</text>
</g>
<!-- 2&#45;&gt;4 -->
<g id="edge11" class="edge">
<title>2&#45;&gt;4</title>
<path fill="none" stroke="grey" stroke-width="2" d="M835.22,-229.51C985.15,-223.56 1278.58,-209.29 1537.39,-180.46"/>
<polygon fill="grey" stroke="grey" stroke-width="2" points="1537.53,-183.63 1547.08,-179.04 1536.75,-176.68 1537.53,-183.63"/>
</g>
<!-- 8 -->
<g id="node9" class="node">
<title>8</title>
<path fill="none" stroke="#567bd8" stroke-width="2" d="M285,-180C285,-180 123,-180 123,-180 117,-180 111,-174 111,-168 111,-168 111,-156 111,-156 111,-150 117,-144 123,-144 123,-144 285,-144 285,-144 291,-144 297,-150 297,-156 297,-156 297,-168 297,-168 297,-174 291,-180 285,-180"/>
<text text-anchor="middle" x="204" y="-158.5" font-family="sans" font-size="10.00">centromere_scoring_TE_coverage</text>
</g>
<!-- 2&#45;&gt;8 -->
<g id="edge15" class="edge">
<title>2&#45;&gt;8</title>
<path fill="none" stroke="grey" stroke-width="2" d="M636.78,-221.98C552.59,-212.36 428.26,-197.49 310.72,-180.65"/>
<polygon fill="grey" stroke="grey" stroke-width="2" points="310.3,-176.77 299.9,-178.81 309.3,-183.7 310.3,-176.77"/>
</g>
<!-- 14 -->
<g id="node15" class="node">
<title>14</title>
<path fill="none" stroke="#9fd856" stroke-width="2" stroke-dasharray="5,2" d="M589,-180C589,-180 327,-180 327,-180 321,-180 315,-174 315,-168 315,-168 315,-156 315,-156 315,-150 321,-144 327,-144 327,-144 589,-144 589,-144 595,-144 601,-150 601,-156 601,-156 601,-168 601,-168 601,-174 595,-180 589,-180"/>
<text text-anchor="middle" x="458" y="-158.5" font-family="sans" font-size="10.00">centromere_scoring_gene_counts_bedtools_coverage</text>
</g>
<!-- 2&#45;&gt;14 -->
<g id="edge22" class="edge">
<title>2&#45;&gt;14</title>
<path fill="none" stroke="grey" stroke-width="2" d="M664.77,-215.06C627.17,-205.6 580.82,-193.92 541.53,-184.03"/>
<polygon fill="grey" stroke="grey" stroke-width="2" points="541.6,-179.94 531.05,-180.89 539.89,-186.73 541.6,-179.94"/>
</g>
<!-- 16 -->
<g id="node17" class="node">
<title>16</title>
<path fill="none" stroke="#56d88a" stroke-width="2" stroke-dasharray="5,2" d="M1221.5,-180C1221.5,-180 980.5,-180 980.5,-180 974.5,-180 968.5,-174 968.5,-168 968.5,-168 968.5,-156 968.5,-156 968.5,-150 974.5,-144 980.5,-144 980.5,-144 1221.5,-144 1221.5,-144 1227.5,-144 1233.5,-150 1233.5,-156 1233.5,-156 1233.5,-168 1233.5,-168 1233.5,-174 1227.5,-180 1221.5,-180"/>
<text text-anchor="middle" x="1101" y="-158.5" font-family="sans" font-size="10.00">centromere_scoring_hifi_coverage_bedtools_map</text>
</g>
<!-- 2&#45;&gt;16 -->
<g id="edge23" class="edge">
<title>2&#45;&gt;16</title>
<path fill="none" stroke="grey" stroke-width="2" d="M829.52,-215.06C879.96,-205.39 942.41,-193.41 994.69,-183.39"/>
<polygon fill="grey" stroke="grey" stroke-width="2" points="996.24,-186.27 1005.4,-180.95 994.92,-179.4 996.24,-186.27"/>
</g>
<!-- 20 -->
<g id="node21" class="node">
<title>20</title>
<path fill="none" stroke="#88d856" stroke-width="2" stroke-dasharray="5,2" d="M1520.5,-180C1520.5,-180 1263.5,-180 1263.5,-180 1257.5,-180 1251.5,-174 1251.5,-168 1251.5,-168 1251.5,-156 1251.5,-156 1251.5,-150 1257.5,-144 1263.5,-144 1263.5,-144 1520.5,-144 1520.5,-144 1526.5,-144 1532.5,-150 1532.5,-156 1532.5,-156 1532.5,-168 1532.5,-168 1532.5,-174 1526.5,-180 1520.5,-180"/>
<text text-anchor="middle" x="1392" y="-158.5" font-family="sans" font-size="10.00">centromere_scoring_mean_methylation_per_window</text>
</g>
<!-- 2&#45;&gt;20 -->
<g id="edge27" class="edge">
<title>2&#45;&gt;20</title>
<path fill="none" stroke="grey" stroke-width="2" d="M835.12,-222.92C934.45,-212.75 1092.12,-196.44 1238.1,-180.53"/>
<polygon fill="grey" stroke="grey" stroke-width="2" points="1238.27,-183.7 1247.83,-179.14 1237.51,-176.75 1238.27,-183.7"/>
</g>
<!-- 24 -->
<g id="node25" class="node">
<title>24</title>
<path fill="none" stroke="#d86656" stroke-width="2" stroke-dasharray="5,2" d="M938.5,-180C938.5,-180 669.5,-180 669.5,-180 663.5,-180 657.5,-174 657.5,-168 657.5,-168 657.5,-156 657.5,-156 657.5,-150 663.5,-144 669.5,-144 669.5,-144 938.5,-144 938.5,-144 944.5,-144 950.5,-150 950.5,-156 950.5,-156 950.5,-168 950.5,-168 950.5,-174 944.5,-180 938.5,-180"/>
<text text-anchor="middle" x="804" y="-158.5" font-family="sans" font-size="10.00">centromere_scoring_calculate_gc_content_per_window</text>
</g>
<!-- 2&#45;&gt;24 -->
<g id="edge32" class="edge">
<title>2&#45;&gt;24</title>
<path fill="none" stroke="grey" stroke-width="2" d="M753.16,-215.34C760.59,-207.69 769.46,-198.56 777.69,-190.08"/>
<polygon fill="grey" stroke="grey" stroke-width="2" points="780.15,-192.51 784.61,-182.9 775.13,-187.64 780.15,-192.51"/>
</g>
<!-- 3 -->
<g id="node4" class="node">
<title>3</title>
<path fill="none" stroke="#56d89a" stroke-width="2" stroke-dasharray="5,2" d="M154,-324C154,-324 12,-324 12,-324 6,-324 0,-318 0,-312 0,-312 0,-300 0,-300 0,-294 6,-288 12,-288 12,-288 154,-288 154,-288 160,-288 166,-294 166,-300 166,-300 166,-312 166,-312 166,-318 160,-324 154,-324"/>
<text text-anchor="middle" x="83" y="-308.5" font-family="sans" font-size="10.00">centromere_scoring_index_fai</text>
<text text-anchor="middle" x="83" y="-296.5" font-family="sans" font-size="10.00">sample: Fo4287v4</text>
</g>
<!-- 3&#45;&gt;0 -->
<g id="edge2" class="edge">
<title>3&#45;&gt;0</title>
<path fill="none" stroke="grey" stroke-width="2" d="M79.98,-287.12C75.61,-255.2 71.13,-187.66 102,-144 140.27,-89.88 208.7,-58.09 264.9,-40.13"/>
<polygon fill="grey" stroke="grey" stroke-width="2" points="266.53,-42.68 275.06,-36.39 264.47,-35.98 266.53,-42.68"/>
</g>
<!-- 3&#45;&gt;2 -->
<g id="edge10" class="edge">
<title>3&#45;&gt;2</title>
<path fill="none" stroke="grey" stroke-width="2" d="M166.69,-289.21C169.49,-288.78 172.26,-288.38 175,-288 345.22,-264.36 388.91,-268.26 560,-252 580.72,-250.03 602.82,-247.91 624.1,-245.86"/>
<polygon fill="grey" stroke="grey" stroke-width="2" points="624.26,-249.07 633.87,-244.63 623.58,-242.1 624.26,-249.07"/>
</g>
<!-- 4&#45;&gt;1 -->
<g id="edge4" class="edge">
<title>4&#45;&gt;1</title>
<path fill="none" stroke="grey" stroke-width="2" d="M1550.08,-144.96C1547.36,-144.62 1544.66,-144.3 1542,-144 1291.23,-115.72 995.8,-101.3 834.99,-95.03"/>
<polygon fill="grey" stroke="grey" stroke-width="2" points="835.36,-91.43 825.23,-94.54 835.09,-98.42 835.36,-91.43"/>
</g>
<!-- 5 -->
<g id="node6" class="node">
<title>5</title>
<path fill="none" stroke="#56d87b" stroke-width="2" stroke-dasharray="5,2" d="M1726.5,-252C1726.5,-252 1567.5,-252 1567.5,-252 1561.5,-252 1555.5,-246 1555.5,-240 1555.5,-240 1555.5,-228 1555.5,-228 1555.5,-222 1561.5,-216 1567.5,-216 1567.5,-216 1726.5,-216 1726.5,-216 1732.5,-216 1738.5,-222 1738.5,-228 1738.5,-228 1738.5,-240 1738.5,-240 1738.5,-246 1732.5,-252 1726.5,-252"/>
<text text-anchor="middle" x="1647" y="-230.5" font-family="sans" font-size="10.00">centromere_scoring_trf2bed_sort</text>
</g>
<!-- 5&#45;&gt;4 -->
<g id="edge12" class="edge">
<title>5&#45;&gt;4</title>
<path fill="none" stroke="grey" stroke-width="2" d="M1647,-215.34C1647,-208.75 1647,-201.08 1647,-193.67"/>
<polygon fill="grey" stroke="grey" stroke-width="2" points="1650.5,-193.9 1647,-183.9 1643.5,-193.9 1650.5,-193.9"/>
</g>
<!-- 6 -->
<g id="node7" class="node">
<title>6</title>
<path fill="none" stroke="#59d856" stroke-width="2" stroke-dasharray="5,2" d="M1690,-324C1690,-324 1604,-324 1604,-324 1598,-324 1592,-318 1592,-312 1592,-312 1592,-300 1592,-300 1592,-294 1598,-288 1604,-288 1604,-288 1690,-288 1690,-288 1696,-288 1702,-294 1702,-300 1702,-300 1702,-312 1702,-312 1702,-318 1696,-324 1690,-324"/>
<text text-anchor="middle" x="1647" y="-302.5" font-family="sans" font-size="10.00">convert_trf_to_bed</text>
</g>
<!-- 6&#45;&gt;5 -->
<g id="edge13" class="edge">
<title>6&#45;&gt;5</title>
<path fill="none" stroke="grey" stroke-width="2" d="M1647,-287.34C1647,-280.75 1647,-273.08 1647,-265.67"/>
<polygon fill="grey" stroke="grey" stroke-width="2" points="1650.5,-265.9 1647,-255.9 1643.5,-265.9 1650.5,-265.9"/>
</g>
<!-- 7 -->
<g id="node8" class="node">
<title>7</title>
<path fill="none" stroke="#ced856" stroke-width="2" stroke-dasharray="5,2" d="M1689.5,-396C1689.5,-396 1604.5,-396 1604.5,-396 1598.5,-396 1592.5,-390 1592.5,-384 1592.5,-384 1592.5,-372 1592.5,-372 1592.5,-366 1598.5,-360 1604.5,-360 1604.5,-360 1689.5,-360 1689.5,-360 1695.5,-360 1701.5,-366 1701.5,-372 1701.5,-372 1701.5,-384 1701.5,-384 1701.5,-390 1695.5,-396 1689.5,-396"/>
<text text-anchor="middle" x="1647" y="-380.5" font-family="sans" font-size="10.00">run_trf</text>
<text text-anchor="middle" x="1647" y="-368.5" font-family="sans" font-size="10.00">sample: Fo4287v4</text>
</g>
<!-- 7&#45;&gt;6 -->
<g id="edge14" class="edge">
<title>7&#45;&gt;6</title>
<path fill="none" stroke="grey" stroke-width="2" d="M1647,-359.34C1647,-352.75 1647,-345.08 1647,-337.67"/>
<polygon fill="grey" stroke="grey" stroke-width="2" points="1650.5,-337.9 1647,-327.9 1643.5,-337.9 1650.5,-337.9"/>
</g>
<!-- 8&#45;&gt;1 -->
<g id="edge5" class="edge">
<title>8&#45;&gt;1</title>
<path fill="none" stroke="grey" stroke-width="2" d="M297.91,-145.22C300.63,-144.8 303.34,-144.39 306,-144 403.72,-129.55 514.88,-115.31 596.78,-105.24"/>
<polygon fill="grey" stroke="grey" stroke-width="2" points="597.17,-108.35 606.66,-103.66 596.31,-101.41 597.17,-108.35"/>
</g>
<!-- 9 -->
<g id="node10" class="node">
<title>9</title>
<path fill="none" stroke="#56d8a9" stroke-width="2" d="M277,-252C277,-252 143,-252 143,-252 137,-252 131,-246 131,-240 131,-240 131,-228 131,-228 131,-222 137,-216 143,-216 143,-216 277,-216 277,-216 283,-216 289,-222 289,-228 289,-228 289,-240 289,-240 289,-246 283,-252 277,-252"/>
<text text-anchor="middle" x="210" y="-230.5" font-family="sans" font-size="10.00">centromere_scoring_sort_TE</text>
</g>
<!-- 9&#45;&gt;8 -->
<g id="edge16" class="edge">
<title>9&#45;&gt;8</title>
<path fill="none" stroke="grey" stroke-width="2" d="M208.49,-215.34C207.92,-208.75 207.26,-201.08 206.63,-193.67"/>
<polygon fill="grey" stroke="grey" stroke-width="2" points="209.88,-193.57 205.53,-183.9 202.9,-194.16 209.88,-193.57"/>
</g>
<!-- 10 -->
<g id="node11" class="node">
<title>10</title>
<path fill="none" stroke="#566bd8" stroke-width="2" d="M235.5,-324C235.5,-324 196.5,-324 196.5,-324 190.5,-324 184.5,-318 184.5,-312 184.5,-312 184.5,-300 184.5,-300 184.5,-294 190.5,-288 196.5,-288 196.5,-288 235.5,-288 235.5,-288 241.5,-288 247.5,-294 247.5,-300 247.5,-300 247.5,-312 247.5,-312 247.5,-318 241.5,-324 235.5,-324"/>
<text text-anchor="middle" x="216" y="-302.5" font-family="sans" font-size="10.00">edta_bed</text>
</g>
<!-- 10&#45;&gt;9 -->
<g id="edge17" class="edge">
<title>10&#45;&gt;9</title>
<path fill="none" stroke="grey" stroke-width="2" d="M214.49,-287.34C213.92,-280.75 213.26,-273.08 212.63,-265.67"/>
<polygon fill="grey" stroke="grey" stroke-width="2" points="215.88,-265.57 211.53,-255.9 208.9,-266.16 215.88,-265.57"/>
</g>
<!-- 11 -->
<g id="node12" class="node">
<title>11</title>
<path fill="none" stroke="#56a9d8" stroke-width="2" d="M234,-396C234,-396 198,-396 198,-396 192,-396 186,-390 186,-384 186,-384 186,-372 186,-372 186,-366 192,-360 198,-360 198,-360 234,-360 234,-360 240,-360 246,-366 246,-372 246,-372 246,-384 246,-384 246,-390 240,-396 234,-396"/>
<text text-anchor="middle" x="216" y="-374.5" font-family="sans" font-size="10.00">edta_run</text>
</g>
<!-- 11&#45;&gt;10 -->
<g id="edge18" class="edge">
<title>11&#45;&gt;10</title>
<path fill="none" stroke="grey" stroke-width="2" d="M216,-359.34C216,-352.75 216,-345.08 216,-337.67"/>
<polygon fill="grey" stroke="grey" stroke-width="2" points="219.5,-337.9 216,-327.9 212.5,-337.9 219.5,-337.9"/>
</g>
<!-- 12 -->
<g id="node13" class="node">
<title>12</title>
<path fill="none" stroke="#56d8c1" stroke-width="2" stroke-dasharray="5,2" d="M322.5,-468C322.5,-468 237.5,-468 237.5,-468 231.5,-468 225.5,-462 225.5,-456 225.5,-456 225.5,-444 225.5,-444 225.5,-438 231.5,-432 237.5,-432 237.5,-432 322.5,-432 322.5,-432 328.5,-432 334.5,-438 334.5,-444 334.5,-444 334.5,-456 334.5,-456 334.5,-462 328.5,-468 322.5,-468"/>
<text text-anchor="middle" x="280" y="-452.5" font-family="sans" font-size="10.00">edta_cds</text>
<text text-anchor="middle" x="280" y="-440.5" font-family="sans" font-size="10.00">sample: Fo4287v4</text>
</g>
<!-- 12&#45;&gt;11 -->
<g id="edge19" class="edge">
<title>12&#45;&gt;11</title>
<path fill="none" stroke="grey" stroke-width="2" d="M263.85,-431.34C256.93,-423.77 248.69,-414.75 241.01,-406.35"/>
<polygon fill="grey" stroke="grey" stroke-width="2" points="243.7,-403.92 234.37,-398.9 238.53,-408.64 243.7,-403.92"/>
</g>
<!-- 13 -->
<g id="node14" class="node">
<title>13</title>
<path fill="none" stroke="#568ad8" stroke-width="2" stroke-dasharray="5,2" d="M195.5,-468C195.5,-468 110.5,-468 110.5,-468 104.5,-468 98.5,-462 98.5,-456 98.5,-456 98.5,-444 98.5,-444 98.5,-438 104.5,-432 110.5,-432 110.5,-432 195.5,-432 195.5,-432 201.5,-432 207.5,-438 207.5,-444 207.5,-444 207.5,-456 207.5,-456 207.5,-462 201.5,-468 195.5,-468"/>
<text text-anchor="middle" x="153" y="-452.5" font-family="sans" font-size="10.00">edta_gff2bed</text>
<text text-anchor="middle" x="153" y="-440.5" font-family="sans" font-size="10.00">sample: Fo4287v4</text>
</g>
<!-- 13&#45;&gt;11 -->
<g id="edge20" class="edge">
<title>13&#45;&gt;11</title>
<path fill="none" stroke="grey" stroke-width="2" d="M168.9,-431.34C175.71,-423.77 183.82,-414.75 191.38,-406.35"/>
<polygon fill="grey" stroke="grey" stroke-width="2" points="193.8,-408.68 197.89,-398.9 188.6,-403.99 193.8,-408.68"/>
</g>
<!-- 14&#45;&gt;1 -->
<g id="edge6" class="edge">
<title>14&#45;&gt;1</title>
<path fill="none" stroke="grey" stroke-width="2" d="M524.11,-143.06C558.7,-133.68 601.28,-122.13 637.53,-112.29"/>
<polygon fill="grey" stroke="grey" stroke-width="2" points="639.33,-114.89 648.07,-108.89 637.5,-108.13 639.33,-114.89"/>
</g>
<!-- 15 -->
<g id="node16" class="node">
<title>15</title>
<path fill="none" stroke="#56c1d8" stroke-width="2" stroke-dasharray="5,2" d="M538.5,-252C538.5,-252 377.5,-252 377.5,-252 371.5,-252 365.5,-246 365.5,-240 365.5,-240 365.5,-228 365.5,-228 365.5,-222 371.5,-216 377.5,-216 377.5,-216 538.5,-216 538.5,-216 544.5,-216 550.5,-222 550.5,-228 550.5,-228 550.5,-240 550.5,-240 550.5,-246 544.5,-252 538.5,-252"/>
<text text-anchor="middle" x="458" y="-236.5" font-family="sans" font-size="10.00">centromere_scoring_gene_counts</text>
<text text-anchor="middle" x="458" y="-224.5" font-family="sans" font-size="10.00">sample: Fo4287v4</text>
</g>
<!-- 15&#45;&gt;14 -->
<g id="edge21" class="edge">
<title>15&#45;&gt;14</title>
<path fill="none" stroke="grey" stroke-width="2" d="M458,-215.34C458,-208.75 458,-201.08 458,-193.67"/>
<polygon fill="grey" stroke="grey" stroke-width="2" points="461.5,-193.9 458,-183.9 454.5,-193.9 461.5,-193.9"/>
</g>
<!-- 16&#45;&gt;1 -->
<g id="edge7" class="edge">
<title>16&#45;&gt;1</title>
<path fill="none" stroke="grey" stroke-width="2" d="M1002.35,-143.06C948.92,-133.35 882.72,-121.31 827.43,-111.26"/>
<polygon fill="grey" stroke="grey" stroke-width="2" points="827.19,-107.3 816.72,-108.95 825.94,-114.18 827.19,-107.3"/>
</g>
<!-- 17 -->
<g id="node18" class="node">
<title>17</title>
<path fill="none" stroke="#d8ac56" stroke-width="2" stroke-dasharray="5,2" d="M1195.5,-396C1195.5,-396 1030.5,-396 1030.5,-396 1024.5,-396 1018.5,-390 1018.5,-384 1018.5,-384 1018.5,-372 1018.5,-372 1018.5,-366 1024.5,-360 1030.5,-360 1030.5,-360 1195.5,-360 1195.5,-360 1201.5,-360 1207.5,-366 1207.5,-372 1207.5,-372 1207.5,-384 1207.5,-384 1207.5,-390 1201.5,-396 1195.5,-396"/>
<text text-anchor="middle" x="1113" y="-374.5" font-family="sans" font-size="10.00">centromere_scoring_hifi_coverage</text>
</g>
<!-- 17&#45;&gt;16 -->
<g id="edge24" class="edge">
<title>17&#45;&gt;16</title>
<path fill="none" stroke="grey" stroke-width="2" d="M1112,-359.12C1109.95,-322.62 1105.27,-239.13 1102.72,-193.74"/>
<polygon fill="grey" stroke="grey" stroke-width="2" points="1106.06,-193.77 1102.01,-183.98 1099.07,-194.16 1106.06,-193.77"/>
</g>
<!-- 18 -->
<g id="node19" class="node">
<title>18</title>
<path fill="none" stroke="#afd856" stroke-width="2" stroke-dasharray="5,2" d="M1246.5,-468C1246.5,-468 1149.5,-468 1149.5,-468 1143.5,-468 1137.5,-462 1137.5,-456 1137.5,-456 1137.5,-444 1137.5,-444 1137.5,-438 1143.5,-432 1149.5,-432 1149.5,-432 1246.5,-432 1246.5,-432 1252.5,-432 1258.5,-438 1258.5,-444 1258.5,-444 1258.5,-456 1258.5,-456 1258.5,-462 1252.5,-468 1246.5,-468"/>
<text text-anchor="middle" x="1198" y="-446.5" font-family="sans" font-size="10.00">ccsmeth_align_reads</text>
</g>
<!-- 18&#45;&gt;17 -->
<g id="edge25" class="edge">
<title>18&#45;&gt;17</title>
<path fill="none" stroke="grey" stroke-width="2" d="M1176.55,-431.34C1166.86,-423.36 1155.22,-413.77 1144.56,-404.99"/>
<polygon fill="grey" stroke="grey" stroke-width="2" points="1146.68,-401.56 1136.74,-397.9 1142.23,-406.96 1146.68,-401.56"/>
</g>
<!-- 23 -->
<g id="node24" class="node">
<title>23</title>
<path fill="none" stroke="#d8bc56" stroke-width="2" stroke-dasharray="5,2" d="M1343,-396C1343,-396 1253,-396 1253,-396 1247,-396 1241,-390 1241,-384 1241,-384 1241,-372 1241,-372 1241,-366 1247,-360 1253,-360 1253,-360 1343,-360 1343,-360 1349,-360 1355,-366 1355,-372 1355,-372 1355,-384 1355,-384 1355,-390 1349,-396 1343,-396"/>
<text text-anchor="middle" x="1298" y="-374.5" font-family="sans" font-size="10.00">ccsmeth_call_mods</text>
</g>
<!-- 18&#45;&gt;23 -->
<g id="edge31" class="edge">
<title>18&#45;&gt;23</title>
<path fill="none" stroke="grey" stroke-width="2" d="M1223.49,-431.15C1235.25,-422.93 1249.4,-413.02 1262.2,-404.06"/>
<polygon fill="grey" stroke="grey" stroke-width="2" points="1264.37,-406.41 1270.55,-397.81 1260.35,-400.68 1264.37,-406.41"/>
</g>
<!-- 19 -->
<g id="node20" class="node">
<title>19</title>
<path fill="none" stroke="#56d8d0" stroke-width="2" stroke-dasharray="5,2" d="M1240.5,-540C1240.5,-540 1155.5,-540 1155.5,-540 1149.5,-540 1143.5,-534 1143.5,-528 1143.5,-528 1143.5,-516 1143.5,-516 1143.5,-510 1149.5,-504 1155.5,-504 1155.5,-504 1240.5,-504 1240.5,-504 1246.5,-504 1252.5,-510 1252.5,-516 1252.5,-516 1252.5,-528 1252.5,-528 1252.5,-534 1246.5,-540 1240.5,-540"/>
<text text-anchor="middle" x="1198" y="-524.5" font-family="sans" font-size="10.00">ccsmeth_call_hifi</text>
<text text-anchor="middle" x="1198" y="-512.5" font-family="sans" font-size="10.00">sample: Fo4287v4</text>
</g>
<!-- 19&#45;&gt;18 -->
<g id="edge26" class="edge">
<title>19&#45;&gt;18</title>
<path fill="none" stroke="grey" stroke-width="2" d="M1198,-503.34C1198,-496.75 1198,-489.08 1198,-481.67"/>
<polygon fill="grey" stroke="grey" stroke-width="2" points="1201.5,-481.9 1198,-471.9 1194.5,-481.9 1201.5,-481.9"/>
</g>
<!-- 20&#45;&gt;1 -->
<g id="edge8" class="edge">
<title>20&#45;&gt;1</title>
<path fill="none" stroke="grey" stroke-width="2" d="M1250.84,-144.85C1248.2,-144.56 1245.59,-144.28 1243,-144 1102.98,-128.97 941.88,-112.96 835.04,-102.51"/>
<polygon fill="grey" stroke="grey" stroke-width="2" points="835.57,-98.76 825.28,-101.27 834.89,-105.72 835.57,-98.76"/>
</g>
<!-- 21 -->
<g id="node22" class="node">
<title>21</title>
<path fill="none" stroke="#d8d356" stroke-width="2" stroke-dasharray="5,2" d="M1423,-252C1423,-252 1241,-252 1241,-252 1235,-252 1229,-246 1229,-240 1229,-240 1229,-228 1229,-228 1229,-222 1235,-216 1241,-216 1241,-216 1423,-216 1423,-216 1429,-216 1435,-222 1435,-228 1435,-228 1435,-240 1435,-240 1435,-246 1429,-252 1423,-252"/>
<text text-anchor="middle" x="1332" y="-230.5" font-family="sans" font-size="10.00">centromere_scoring_sort_methylation</text>
</g>
<!-- 21&#45;&gt;20 -->
<g id="edge28" class="edge">
<title>21&#45;&gt;20</title>
<path fill="none" stroke="grey" stroke-width="2" d="M1347.14,-215.34C1353.56,-207.85 1361.19,-198.95 1368.32,-190.63"/>
<polygon fill="grey" stroke="grey" stroke-width="2" points="1371.81,-192.77 1375.66,-182.9 1366.49,-188.22 1371.81,-192.77"/>
</g>
<!-- 22 -->
<g id="node23" class="node">
<title>22</title>
<path fill="none" stroke="#56d86b" stroke-width="2" stroke-dasharray="5,2" d="M1346,-324C1346,-324 1258,-324 1258,-324 1252,-324 1246,-318 1246,-312 1246,-312 1246,-300 1246,-300 1246,-294 1252,-288 1258,-288 1258,-288 1346,-288 1346,-288 1352,-288 1358,-294 1358,-300 1358,-300 1358,-312 1358,-312 1358,-318 1352,-324 1346,-324"/>
<text text-anchor="middle" x="1302" y="-302.5" font-family="sans" font-size="10.00">ccsmeth_call_freqb</text>
</g>
<!-- 22&#45;&gt;21 -->
<g id="edge29" class="edge">
<title>22&#45;&gt;21</title>
<path fill="none" stroke="grey" stroke-width="2" d="M1309.57,-287.34C1312.5,-280.51 1315.93,-272.5 1319.21,-264.83"/>
<polygon fill="grey" stroke="grey" stroke-width="2" points="1322.61,-265.47 1323.33,-254.9 1316.17,-262.71 1322.61,-265.47"/>
</g>
<!-- 23&#45;&gt;22 -->
<g id="edge30" class="edge">
<title>23&#45;&gt;22</title>
<path fill="none" stroke="grey" stroke-width="2" d="M1299.01,-359.34C1299.39,-352.75 1299.82,-345.08 1300.25,-337.67"/>
<polygon fill="grey" stroke="grey" stroke-width="2" points="1303.9,-338.09 1300.98,-327.9 1296.91,-337.69 1303.9,-338.09"/>
</g>
<!-- 24&#45;&gt;1 -->
<g id="edge9" class="edge">
<title>24&#45;&gt;1</title>
<path fill="none" stroke="grey" stroke-width="2" d="M781.79,-143.34C771.76,-135.36 759.71,-125.77 748.67,-116.99"/>
<polygon fill="grey" stroke="grey" stroke-width="2" points="750.51,-113.39 740.51,-109.9 746.15,-118.87 750.51,-113.39"/>
</g>
</g>
</svg>
