<?xml version="1.0" encoding="UTF-8" standalone="no"?>
<!DOCTYPE svg PUBLIC "-//W3C//DTD SVG 1.1//EN"
 "http://www.w3.org/Graphics/SVG/1.1/DTD/svg11.dtd">
<!-- Generated by graphviz version 8.0.5 (0)
 -->
<!-- Title: snakemake_dag Pages: 1 -->
<svg width="1751pt" height="548pt"
 viewBox="0.00 0.00 1751.00 548.00" xmlns="http://www.w3.org/2000/svg" xmlns:xlink="http://www.w3.org/1999/xlink">
<g id="graph0" class="graph" transform="scale(1 1) rotate(0) translate(4 544)">
<title>snakemake_dag</title>
<polygon fill="white" stroke="none" points="-4,4 -4,-544 1747,-544 1747,4 -4,4"/>
<!-- 0 -->
<g id="node1" class="node">
<title>0</title>
<path fill="none" stroke="#68d856" stroke-width="2" stroke-dasharray="5,2" d="M422,-36C422,-36 290,-36 290,-36 284,-36 278,-30 278,-24 278,-24 278,-12 278,-12 278,-6 284,0 290,0 290,0 422,0 422,0 428,0 434,-6 434,-12 434,-12 434,-24 434,-24 434,-30 428,-36 422,-36"/>
<text text-anchor="middle" x="356" y="-14.5" font-family="sans" font-size="10.00">centromere_scoring_python</text>
</g>
<!-- 1 -->
<g id="node2" class="node">
<title>1</title>
<path fill="none" stroke="#56d88a" stroke-width="2" stroke-dasharray="5,2" d="M809.5,-108C809.5,-108 622.5,-108 622.5,-108 616.5,-108 610.5,-102 610.5,-96 610.5,-96 610.5,-84 610.5,-84 610.5,-78 616.5,-72 622.5,-72 622.5,-72 809.5,-72 809.5,-72 815.5,-72 821.5,-78 821.5,-84 821.5,-84 821.5,-96 821.5,-96 821.5,-102 815.5,-108 809.5,-108"/>
<text text-anchor="middle" x="716" y="-86.5" font-family="sans" font-size="10.00">centromere_scoring_combine_features</text>
</g>
<!-- 1&#45;&gt;0 -->
<g id="edge1" class="edge">
<title>1&#45;&gt;0</title>
<path fill="none" stroke="grey" stroke-width="2" d="M623.76,-71.06C569.66,-60.55 501.56,-47.3 447.58,-36.81"/>
<polygon fill="grey" stroke="grey" stroke-width="2" points="447.36,-32.81 436.88,-34.34 446.03,-39.68 447.36,-32.81"/>
</g>
<!-- 2 -->
<g id="node3" class="node">
<title>2</title>
<path fill="none" stroke="#d87556" stroke-width="2" stroke-dasharray="5,2" d="M822.5,-252C822.5,-252 649.5,-252 649.5,-252 643.5,-252 637.5,-246 637.5,-240 637.5,-240 637.5,-228 637.5,-228 637.5,-222 643.5,-216 649.5,-216 649.5,-216 822.5,-216 822.5,-216 828.5,-216 834.5,-222 834.5,-228 834.5,-228 834.5,-240 834.5,-240 834.5,-246 828.5,-252 822.5,-252"/>
<text text-anchor="middle" x="736" y="-236.5" font-family="sans" font-size="10.00">centromere_scoring_make_windows</text>
<text text-anchor="middle" x="736" y="-224.5" font-family="sans" font-size="10.00">window: 1000</text>
</g>
<!-- 2&#45;&gt;1 -->
<g id="edge3" class="edge">
<title>2&#45;&gt;1</title>
<path fill="none" stroke="grey" stroke-width="2" d="M688.1,-215.12C672.83,-206.88 657.66,-195.42 649,-180 641.16,-166.05 642.03,-158.4 649,-144 654.17,-133.31 662.66,-124.13 671.89,-116.55"/>
<polygon fill="grey" stroke="grey" stroke-width="2" points="674.14,-118.75 680.06,-109.96 669.95,-113.13 674.14,-118.75"/>
</g>
<!-- 4 -->
<g id="node5" class="node">
<title>4</title>
<path fill="none" stroke="#56d86b" stroke-width="2" stroke-dasharray="5,2" d="M1731,-180C1731,-180 1563,-180 1563,-180 1557,-180 1551,-174 1551,-168 1551,-168 1551,-156 1551,-156 1551,-150 1557,-144 1563,-144 1563,-144 1731,-144 1731,-144 1737,-144 1743,-150 1743,-156 1743,-156 1743,-168 1743,-168 1743,-174 1737,-180 1731,-180"/>
<text text-anchor="middle" x="1647" y="-158.5" font-family="sans" font-size="10.00">centromere_scoring_TRF_coverage</text>
</g>
<!-- 2&#45;&gt;4 -->
<g id="edge11" class="edge">
<title>2&#45;&gt;4</title>
<path fill="none" stroke="grey" stroke-width="2" d="M835.1,-226.61C1030.95,-213.96 1455.17,-186.47 1537.23,-180.13"/>
<polygon fill="grey" stroke="grey" stroke-width="2" points="1537.41,-183.37 1547.08,-179.04 1536.81,-176.4 1537.41,-183.37"/>
</g>
<!-- 8 -->
<g id="node9" class="node">
<title>8</title>
<path fill="none" stroke="#56d8d0" stroke-width="2" stroke-dasharray="5,2" d="M285,-180C285,-180 123,-180 123,-180 117,-180 111,-174 111,-168 111,-168 111,-156 111,-156 111,-150 117,-144 123,-144 123,-144 285,-144 285,-144 291,-144 297,-150 297,-156 297,-156 297,-168 297,-168 297,-174 291,-180 285,-180"/>
<text text-anchor="middle" x="204" y="-158.5" font-family="sans" font-size="10.00">centromere_scoring_TE_coverage</text>
</g>
<!-- 2&#45;&gt;8 -->
<g id="edge15" class="edge">
<title>2&#45;&gt;8</title>
<path fill="none" stroke="grey" stroke-width="2" d="M636.78,-221.98C552.59,-212.36 428.26,-197.49 310.72,-180.65"/>
<polygon fill="grey" stroke="grey" stroke-width="2" points="310.3,-176.77 299.9,-178.81 309.3,-183.7 310.3,-176.77"/>
</g>
<!-- 14 -->
<g id="node15" class="node">
<title>14</title>
<path fill="none" stroke="#d88d56" stroke-width="2" stroke-dasharray="5,2" d="M589,-180C589,-180 327,-180 327,-180 321,-180 315,-174 315,-168 315,-168 315,-156 315,-156 315,-150 321,-144 327,-144 327,-144 589,-144 589,-144 595,-144 601,-150 601,-156 601,-156 601,-168 601,-168 601,-174 595,-180 589,-180"/>
<text text-anchor="middle" x="458" y="-158.5" font-family="sans" font-size="10.00">centromere_scoring_gene_counts_bedtools_coverage</text>
</g>
<!-- 2&#45;&gt;14 -->
<g id="edge22" class="edge">
<title>2&#45;&gt;14</title>
<path fill="none" stroke="grey" stroke-width="2" d="M664.77,-215.06C627.17,-205.6 580.82,-193.92 541.53,-184.03"/>
<polygon fill="grey" stroke="grey" stroke-width="2" points="541.6,-179.94 531.05,-180.89 539.89,-186.73 541.6,-179.94"/>
</g>
<!-- 16 -->
<g id="node17" class="node">
<title>16</title>
<path fill="none" stroke="#56d87b" stroke-width="2" stroke-dasharray="5,2" d="M1520.5,-180C1520.5,-180 1279.5,-180 1279.5,-180 1273.5,-180 1267.5,-174 1267.5,-168 1267.5,-168 1267.5,-156 1267.5,-156 1267.5,-150 1273.5,-144 1279.5,-144 1279.5,-144 1520.5,-144 1520.5,-144 1526.5,-144 1532.5,-150 1532.5,-156 1532.5,-156 1532.5,-168 1532.5,-168 1532.5,-174 1526.5,-180 1520.5,-180"/>
<text text-anchor="middle" x="1400" y="-158.5" font-family="sans" font-size="10.00">centromere_scoring_hifi_coverage_bedtools_map</text>
</g>
<!-- 2&#45;&gt;16 -->
<g id="edge23" class="edge">
<title>2&#45;&gt;16</title>
<path fill="none" stroke="grey" stroke-width="2" d="M835.35,-223.5C937.72,-213.58 1102.3,-197.27 1254.03,-180.54"/>
<polygon fill="grey" stroke="grey" stroke-width="2" points="1254.24,-183.71 1263.79,-179.13 1253.47,-176.75 1254.24,-183.71"/>
</g>
<!-- 20 -->
<g id="node21" class="node">
<title>20</title>
<path fill="none" stroke="#568ad8" stroke-width="2" stroke-dasharray="5,2" d="M1237.5,-180C1237.5,-180 980.5,-180 980.5,-180 974.5,-180 968.5,-174 968.5,-168 968.5,-168 968.5,-156 968.5,-156 968.5,-150 974.5,-144 980.5,-144 980.5,-144 1237.5,-144 1237.5,-144 1243.5,-144 1249.5,-150 1249.5,-156 1249.5,-156 1249.5,-168 1249.5,-168 1249.5,-174 1243.5,-180 1237.5,-180"/>
<text text-anchor="middle" x="1109" y="-158.5" font-family="sans" font-size="10.00">centromere_scoring_mean_methylation_per_window</text>
</g>
<!-- 2&#45;&gt;20 -->
<g id="edge27" class="edge">
<title>2&#45;&gt;20</title>
<path fill="none" stroke="grey" stroke-width="2" d="M831.57,-215.06C883.23,-205.37 947.21,-193.36 1000.7,-183.32"/>
<polygon fill="grey" stroke="grey" stroke-width="2" points="1002.17,-186.23 1011.35,-180.95 1000.88,-179.35 1002.17,-186.23"/>
</g>
<!-- 24 -->
<g id="node25" class="node">
<title>24</title>
<path fill="none" stroke="#88d856" stroke-width="2" stroke-dasharray="5,2" d="M938.5,-180C938.5,-180 669.5,-180 669.5,-180 663.5,-180 657.5,-174 657.5,-168 657.5,-168 657.5,-156 657.5,-156 657.5,-150 663.5,-144 669.5,-144 669.5,-144 938.5,-144 938.5,-144 944.5,-144 950.5,-150 950.5,-156 950.5,-156 950.5,-168 950.5,-168 950.5,-174 944.5,-180 938.5,-180"/>
<text text-anchor="middle" x="804" y="-158.5" font-family="sans" font-size="10.00">centromere_scoring_calculate_gc_content_per_window</text>
</g>
<!-- 2&#45;&gt;24 -->
<g id="edge33" class="edge">
<title>2&#45;&gt;24</title>
<path fill="none" stroke="grey" stroke-width="2" d="M753.16,-215.34C760.59,-207.69 769.46,-198.56 777.69,-190.08"/>
<polygon fill="grey" stroke="grey" stroke-width="2" points="780.15,-192.51 784.61,-182.9 775.13,-187.64 780.15,-192.51"/>
</g>
<!-- 3 -->
<g id="node4" class="node">
<title>3</title>
<path fill="none" stroke="#567bd8" stroke-width="2" stroke-dasharray="5,2" d="M154,-324C154,-324 12,-324 12,-324 6,-324 0,-318 0,-312 0,-312 0,-300 0,-300 0,-294 6,-288 12,-288 12,-288 154,-288 154,-288 160,-288 166,-294 166,-300 166,-300 166,-312 166,-312 166,-318 160,-324 154,-324"/>
<text text-anchor="middle" x="83" y="-308.5" font-family="sans" font-size="10.00">centromere_scoring_index_fai</text>
<text text-anchor="middle" x="83" y="-296.5" font-family="sans" font-size="10.00">sample: Guy11_chr1</text>
</g>
<!-- 3&#45;&gt;0 -->
<g id="edge2" class="edge">
<title>3&#45;&gt;0</title>
<path fill="none" stroke="grey" stroke-width="2" d="M79.98,-287.12C75.61,-255.2 71.13,-187.66 102,-144 140.27,-89.88 208.7,-58.09 264.9,-40.13"/>
<polygon fill="grey" stroke="grey" stroke-width="2" points="266.53,-42.68 275.06,-36.39 264.47,-35.98 266.53,-42.68"/>
</g>
<!-- 3&#45;&gt;2 -->
<g id="edge10" class="edge">
<title>3&#45;&gt;2</title>
<path fill="none" stroke="grey" stroke-width="2" d="M166.69,-289.21C169.49,-288.78 172.26,-288.38 175,-288 345.22,-264.36 388.91,-268.26 560,-252 580.72,-250.03 602.82,-247.91 624.1,-245.86"/>
<polygon fill="grey" stroke="grey" stroke-width="2" points="624.26,-249.07 633.87,-244.63 623.58,-242.1 624.26,-249.07"/>
</g>
<!-- 4&#45;&gt;1 -->
<g id="edge4" class="edge">
<title>4&#45;&gt;1</title>
<path fill="none" stroke="grey" stroke-width="2" d="M1550.08,-144.96C1547.36,-144.62 1544.66,-144.3 1542,-144 1291.23,-115.72 995.8,-101.3 834.99,-95.03"/>
<polygon fill="grey" stroke="grey" stroke-width="2" points="835.36,-91.43 825.23,-94.54 835.09,-98.42 835.36,-91.43"/>
</g>
<!-- 5 -->
<g id="node6" class="node">
<title>5</title>
<path fill="none" stroke="#56d89a" stroke-width="2" stroke-dasharray="5,2" d="M1726.5,-252C1726.5,-252 1567.5,-252 1567.5,-252 1561.5,-252 1555.5,-246 1555.5,-240 1555.5,-240 1555.5,-228 1555.5,-228 1555.5,-222 1561.5,-216 1567.5,-216 1567.5,-216 1726.5,-216 1726.5,-216 1732.5,-216 1738.5,-222 1738.5,-228 1738.5,-228 1738.5,-240 1738.5,-240 1738.5,-246 1732.5,-252 1726.5,-252"/>
<text text-anchor="middle" x="1647" y="-230.5" font-family="sans" font-size="10.00">centromere_scoring_trf2bed_sort</text>
</g>
<!-- 5&#45;&gt;4 -->
<g id="edge12" class="edge">
<title>5&#45;&gt;4</title>
<path fill="none" stroke="grey" stroke-width="2" d="M1647,-215.34C1647,-208.75 1647,-201.08 1647,-193.67"/>
<polygon fill="grey" stroke="grey" stroke-width="2" points="1650.5,-193.9 1647,-183.9 1643.5,-193.9 1650.5,-193.9"/>
</g>
<!-- 6 -->
<g id="node7" class="node">
<title>6</title>
<path fill="none" stroke="#afd856" stroke-width="2" stroke-dasharray="5,2" d="M1690,-324C1690,-324 1604,-324 1604,-324 1598,-324 1592,-318 1592,-312 1592,-312 1592,-300 1592,-300 1592,-294 1598,-288 1604,-288 1604,-288 1690,-288 1690,-288 1696,-288 1702,-294 1702,-300 1702,-300 1702,-312 1702,-312 1702,-318 1696,-324 1690,-324"/>
<text text-anchor="middle" x="1647" y="-302.5" font-family="sans" font-size="10.00">convert_trf_to_bed</text>
</g>
<!-- 6&#45;&gt;5 -->
<g id="edge13" class="edge">
<title>6&#45;&gt;5</title>
<path fill="none" stroke="grey" stroke-width="2" d="M1647,-287.34C1647,-280.75 1647,-273.08 1647,-265.67"/>
<polygon fill="grey" stroke="grey" stroke-width="2" points="1650.5,-265.9 1647,-255.9 1643.5,-265.9 1650.5,-265.9"/>
</g>
<!-- 7 -->
<g id="node8" class="node">
<title>7</title>
<path fill="none" stroke="#9fd856" stroke-width="2" stroke-dasharray="5,2" d="M1695,-396C1695,-396 1599,-396 1599,-396 1593,-396 1587,-390 1587,-384 1587,-384 1587,-372 1587,-372 1587,-366 1593,-360 1599,-360 1599,-360 1695,-360 1695,-360 1701,-360 1707,-366 1707,-372 1707,-372 1707,-384 1707,-384 1707,-390 1701,-396 1695,-396"/>
<text text-anchor="middle" x="1647" y="-380.5" font-family="sans" font-size="10.00">run_trf</text>
<text text-anchor="middle" x="1647" y="-368.5" font-family="sans" font-size="10.00">sample: Guy11_chr1</text>
</g>
<!-- 7&#45;&gt;6 -->
<g id="edge14" class="edge">
<title>7&#45;&gt;6</title>
<path fill="none" stroke="grey" stroke-width="2" d="M1647,-359.34C1647,-352.75 1647,-345.08 1647,-337.67"/>
<polygon fill="grey" stroke="grey" stroke-width="2" points="1650.5,-337.9 1647,-327.9 1643.5,-337.9 1650.5,-337.9"/>
</g>
<!-- 8&#45;&gt;1 -->
<g id="edge5" class="edge">
<title>8&#45;&gt;1</title>
<path fill="none" stroke="grey" stroke-width="2" d="M297.91,-145.22C300.63,-144.8 303.34,-144.39 306,-144 403.72,-129.55 514.88,-115.31 596.78,-105.24"/>
<polygon fill="grey" stroke="grey" stroke-width="2" points="597.17,-108.35 606.66,-103.66 596.31,-101.41 597.17,-108.35"/>
</g>
<!-- 9 -->
<g id="node10" class="node">
<title>9</title>
<path fill="none" stroke="#56c1d8" stroke-width="2" stroke-dasharray="5,2" d="M277,-252C277,-252 143,-252 143,-252 137,-252 131,-246 131,-240 131,-240 131,-228 131,-228 131,-222 137,-216 143,-216 143,-216 277,-216 277,-216 283,-216 289,-222 289,-228 289,-228 289,-240 289,-240 289,-246 283,-252 277,-252"/>
<text text-anchor="middle" x="210" y="-230.5" font-family="sans" font-size="10.00">centromere_scoring_sort_TE</text>
</g>
<!-- 9&#45;&gt;8 -->
<g id="edge16" class="edge">
<title>9&#45;&gt;8</title>
<path fill="none" stroke="grey" stroke-width="2" d="M208.49,-215.34C207.92,-208.75 207.26,-201.08 206.63,-193.67"/>
<polygon fill="grey" stroke="grey" stroke-width="2" points="209.88,-193.57 205.53,-183.9 202.9,-194.16 209.88,-193.57"/>
</g>
<!-- 10 -->
<g id="node11" class="node">
<title>10</title>
<path fill="none" stroke="#56d8a9" stroke-width="2" stroke-dasharray="5,2" d="M235.5,-324C235.5,-324 196.5,-324 196.5,-324 190.5,-324 184.5,-318 184.5,-312 184.5,-312 184.5,-300 184.5,-300 184.5,-294 190.5,-288 196.5,-288 196.5,-288 235.5,-288 235.5,-288 241.5,-288 247.5,-294 247.5,-300 247.5,-300 247.5,-312 247.5,-312 247.5,-318 241.5,-324 235.5,-324"/>
<text text-anchor="middle" x="216" y="-302.5" font-family="sans" font-size="10.00">edta_bed</text>
</g>
<!-- 10&#45;&gt;9 -->
<g id="edge17" class="edge">
<title>10&#45;&gt;9</title>
<path fill="none" stroke="grey" stroke-width="2" d="M214.49,-287.34C213.92,-280.75 213.26,-273.08 212.63,-265.67"/>
<polygon fill="grey" stroke="grey" stroke-width="2" points="215.88,-265.57 211.53,-255.9 208.9,-266.16 215.88,-265.57"/>
</g>
<!-- 11 -->
<g id="node12" class="node">
<title>11</title>
<path fill="none" stroke="#d8ac56" stroke-width="2" stroke-dasharray="5,2" d="M234,-396C234,-396 198,-396 198,-396 192,-396 186,-390 186,-384 186,-384 186,-372 186,-372 186,-366 192,-360 198,-360 198,-360 234,-360 234,-360 240,-360 246,-366 246,-372 246,-372 246,-384 246,-384 246,-390 240,-396 234,-396"/>
<text text-anchor="middle" x="216" y="-374.5" font-family="sans" font-size="10.00">edta_run</text>
</g>
<!-- 11&#45;&gt;10 -->
<g id="edge18" class="edge">
<title>11&#45;&gt;10</title>
<path fill="none" stroke="grey" stroke-width="2" d="M216,-359.34C216,-352.75 216,-345.08 216,-337.67"/>
<polygon fill="grey" stroke="grey" stroke-width="2" points="219.5,-337.9 216,-327.9 212.5,-337.9 219.5,-337.9"/>
</g>
<!-- 12 -->
<g id="node13" class="node">
<title>12</title>
<path fill="none" stroke="#566bd8" stroke-width="2" stroke-dasharray="5,2" d="M333,-468C333,-468 237,-468 237,-468 231,-468 225,-462 225,-456 225,-456 225,-444 225,-444 225,-438 231,-432 237,-432 237,-432 333,-432 333,-432 339,-432 345,-438 345,-444 345,-444 345,-456 345,-456 345,-462 339,-468 333,-468"/>
<text text-anchor="middle" x="285" y="-452.5" font-family="sans" font-size="10.00">edta_cds</text>
<text text-anchor="middle" x="285" y="-440.5" font-family="sans" font-size="10.00">sample: Guy11_chr1</text>
</g>
<!-- 12&#45;&gt;11 -->
<g id="edge19" class="edge">
<title>12&#45;&gt;11</title>
<path fill="none" stroke="grey" stroke-width="2" d="M267.59,-431.34C260.05,-423.69 251.05,-414.56 242.69,-406.08"/>
<polygon fill="grey" stroke="grey" stroke-width="2" points="245.16,-403.57 235.65,-398.9 240.17,-408.48 245.16,-403.57"/>
</g>
<!-- 13 -->
<g id="node14" class="node">
<title>13</title>
<path fill="none" stroke="#56d0d8" stroke-width="2" stroke-dasharray="5,2" d="M195,-468C195,-468 99,-468 99,-468 93,-468 87,-462 87,-456 87,-456 87,-444 87,-444 87,-438 93,-432 99,-432 99,-432 195,-432 195,-432 201,-432 207,-438 207,-444 207,-444 207,-456 207,-456 207,-462 201,-468 195,-468"/>
<text text-anchor="middle" x="147" y="-452.5" font-family="sans" font-size="10.00">edta_gff2bed</text>
<text text-anchor="middle" x="147" y="-440.5" font-family="sans" font-size="10.00">sample: Guy11_chr1</text>
</g>
<!-- 13&#45;&gt;11 -->
<g id="edge20" class="edge">
<title>13&#45;&gt;11</title>
<path fill="none" stroke="grey" stroke-width="2" d="M164.41,-431.34C171.95,-423.69 180.95,-414.56 189.31,-406.08"/>
<polygon fill="grey" stroke="grey" stroke-width="2" points="191.83,-408.48 196.35,-398.9 186.84,-403.57 191.83,-408.48"/>
</g>
<!-- 14&#45;&gt;1 -->
<g id="edge6" class="edge">
<title>14&#45;&gt;1</title>
<path fill="none" stroke="grey" stroke-width="2" d="M524.11,-143.06C558.7,-133.68 601.28,-122.13 637.53,-112.29"/>
<polygon fill="grey" stroke="grey" stroke-width="2" points="639.33,-114.89 648.07,-108.89 637.5,-108.13 639.33,-114.89"/>
</g>
<!-- 15 -->
<g id="node16" class="node">
<title>15</title>
<path fill="none" stroke="#d85656" stroke-width="2" stroke-dasharray="5,2" d="M538.5,-252C538.5,-252 377.5,-252 377.5,-252 371.5,-252 365.5,-246 365.5,-240 365.5,-240 365.5,-228 365.5,-228 365.5,-222 371.5,-216 377.5,-216 377.5,-216 538.5,-216 538.5,-216 544.5,-216 550.5,-222 550.5,-228 550.5,-228 550.5,-240 550.5,-240 550.5,-246 544.5,-252 538.5,-252"/>
<text text-anchor="middle" x="458" y="-236.5" font-family="sans" font-size="10.00">centromere_scoring_gene_counts</text>
<text text-anchor="middle" x="458" y="-224.5" font-family="sans" font-size="10.00">sample: Guy11_chr1</text>
</g>
<!-- 15&#45;&gt;14 -->
<g id="edge21" class="edge">
<title>15&#45;&gt;14</title>
<path fill="none" stroke="grey" stroke-width="2" d="M458,-215.34C458,-208.75 458,-201.08 458,-193.67"/>
<polygon fill="grey" stroke="grey" stroke-width="2" points="461.5,-193.9 458,-183.9 454.5,-193.9 461.5,-193.9"/>
</g>
<!-- 16&#45;&gt;1 -->
<g id="edge7" class="edge">
<title>16&#45;&gt;1</title>
<path fill="none" stroke="grey" stroke-width="2" d="M1266.79,-144.86C1264.17,-144.57 1261.57,-144.28 1259,-144 1113.29,-128.11 945.33,-112.06 835.25,-101.86"/>
<polygon fill="grey" stroke="grey" stroke-width="2" points="835.74,-98.11 825.46,-100.67 835.09,-105.08 835.74,-98.11"/>
</g>
<!-- 17 -->
<g id="node18" class="node">
<title>17</title>
<path fill="none" stroke="#d8d356" stroke-width="2" stroke-dasharray="5,2" d="M1421.5,-396C1421.5,-396 1256.5,-396 1256.5,-396 1250.5,-396 1244.5,-390 1244.5,-384 1244.5,-384 1244.5,-372 1244.5,-372 1244.5,-366 1250.5,-360 1256.5,-360 1256.5,-360 1421.5,-360 1421.5,-360 1427.5,-360 1433.5,-366 1433.5,-372 1433.5,-372 1433.5,-384 1433.5,-384 1433.5,-390 1427.5,-396 1421.5,-396"/>
<text text-anchor="middle" x="1339" y="-374.5" font-family="sans" font-size="10.00">centromere_scoring_hifi_coverage</text>
</g>
<!-- 17&#45;&gt;16 -->
<g id="edge24" class="edge">
<title>17&#45;&gt;16</title>
<path fill="none" stroke="grey" stroke-width="2" d="M1344.1,-359.12C1354.52,-322.54 1378.4,-238.77 1391.32,-193.45"/>
<polygon fill="grey" stroke="grey" stroke-width="2" points="1395.5,-193.55 1394.88,-182.98 1388.77,-191.63 1395.5,-193.55"/>
</g>
<!-- 18 -->
<g id="node19" class="node">
<title>18</title>
<path fill="none" stroke="#56a9d8" stroke-width="2" stroke-dasharray="5,2" d="M1251.5,-468C1251.5,-468 1168.5,-468 1168.5,-468 1162.5,-468 1156.5,-462 1156.5,-456 1156.5,-456 1156.5,-444 1156.5,-444 1156.5,-438 1162.5,-432 1168.5,-432 1168.5,-432 1251.5,-432 1251.5,-432 1257.5,-432 1263.5,-438 1263.5,-444 1263.5,-444 1263.5,-456 1263.5,-456 1263.5,-462 1257.5,-468 1251.5,-468"/>
<text text-anchor="middle" x="1210" y="-446.5" font-family="sans" font-size="10.00">mn_samtools_sort</text>
</g>
<!-- 18&#45;&gt;17 -->
<g id="edge25" class="edge">
<title>18&#45;&gt;17</title>
<path fill="none" stroke="grey" stroke-width="2" d="M1242.89,-431.15C1258.66,-422.6 1277.77,-412.22 1294.79,-402.99"/>
<polygon fill="grey" stroke="grey" stroke-width="2" points="1297.05,-405.66 1304.17,-397.81 1293.72,-399.51 1297.05,-405.66"/>
</g>
<!-- 22 -->
<g id="node23" class="node">
<title>22</title>
<path fill="none" stroke="#d8bc56" stroke-width="2" stroke-dasharray="5,2" d="M1166,-324C1166,-324 1082,-324 1082,-324 1076,-324 1070,-318 1070,-312 1070,-312 1070,-300 1070,-300 1070,-294 1076,-288 1082,-288 1082,-288 1166,-288 1166,-288 1172,-288 1178,-294 1178,-300 1178,-300 1178,-312 1178,-312 1178,-318 1172,-324 1166,-324"/>
<text text-anchor="middle" x="1124" y="-302.5" font-family="sans" font-size="10.00">mn_modbam2bed</text>
</g>
<!-- 18&#45;&gt;22 -->
<g id="edge30" class="edge">
<title>18&#45;&gt;22</title>
<path fill="none" stroke="grey" stroke-width="2" d="M1209.7,-431.31C1208.63,-412.34 1204.67,-382.01 1191,-360 1184.44,-349.43 1174.98,-340.1 1165.24,-332.33"/>
<polygon fill="grey" stroke="grey" stroke-width="2" points="1167.2,-328.95 1157.08,-325.81 1163.03,-334.58 1167.2,-328.95"/>
</g>
<!-- 23 -->
<g id="node24" class="node">
<title>23</title>
<path fill="none" stroke="#ced856" stroke-width="2" stroke-dasharray="5,2" d="M1170,-396C1170,-396 1078,-396 1078,-396 1072,-396 1066,-390 1066,-384 1066,-384 1066,-372 1066,-372 1066,-366 1072,-360 1078,-360 1078,-360 1170,-360 1170,-360 1176,-360 1182,-366 1182,-372 1182,-372 1182,-384 1182,-384 1182,-390 1176,-396 1170,-396"/>
<text text-anchor="middle" x="1124" y="-374.5" font-family="sans" font-size="10.00">mn_samtools_index</text>
</g>
<!-- 18&#45;&gt;23 -->
<g id="edge32" class="edge">
<title>18&#45;&gt;23</title>
<path fill="none" stroke="grey" stroke-width="2" d="M1188.3,-431.34C1178.49,-423.36 1166.71,-413.77 1155.93,-404.99"/>
<polygon fill="grey" stroke="grey" stroke-width="2" points="1157.96,-401.5 1147.99,-397.9 1153.54,-406.93 1157.96,-401.5"/>
</g>
<!-- 19 -->
<g id="node20" class="node">
<title>19</title>
<path fill="none" stroke="#d89c56" stroke-width="2" stroke-dasharray="5,2" d="M1258,-540C1258,-540 1162,-540 1162,-540 1156,-540 1150,-534 1150,-528 1150,-528 1150,-516 1150,-516 1150,-510 1156,-504 1162,-504 1162,-504 1258,-504 1258,-504 1264,-504 1270,-510 1270,-516 1270,-516 1270,-528 1270,-528 1270,-534 1264,-540 1258,-540"/>
<text text-anchor="middle" x="1210" y="-524.5" font-family="sans" font-size="10.00">mn_minimap2</text>
<text text-anchor="middle" x="1210" y="-512.5" font-family="sans" font-size="10.00">sample: Guy11_chr1</text>
</g>
<!-- 19&#45;&gt;18 -->
<g id="edge26" class="edge">
<title>19&#45;&gt;18</title>
<path fill="none" stroke="grey" stroke-width="2" d="M1210,-503.34C1210,-496.75 1210,-489.08 1210,-481.67"/>
<polygon fill="grey" stroke="grey" stroke-width="2" points="1213.5,-481.9 1210,-471.9 1206.5,-481.9 1213.5,-481.9"/>
</g>
<!-- 20&#45;&gt;1 -->
<g id="edge8" class="edge">
<title>20&#45;&gt;1</title>
<path fill="none" stroke="grey" stroke-width="2" d="M1008.05,-143.02C953.5,-133.3 885.96,-121.27 829.58,-111.23"/>
<polygon fill="grey" stroke="grey" stroke-width="2" points="829.45,-107.3 818.99,-108.99 828.22,-114.19 829.45,-107.3"/>
</g>
<!-- 21 -->
<g id="node22" class="node">
<title>21</title>
<path fill="none" stroke="#569ad8" stroke-width="2" stroke-dasharray="5,2" d="M1205,-252C1205,-252 1023,-252 1023,-252 1017,-252 1011,-246 1011,-240 1011,-240 1011,-228 1011,-228 1011,-222 1017,-216 1023,-216 1023,-216 1205,-216 1205,-216 1211,-216 1217,-222 1217,-228 1217,-228 1217,-240 1217,-240 1217,-246 1211,-252 1205,-252"/>
<text text-anchor="middle" x="1114" y="-230.5" font-family="sans" font-size="10.00">centromere_scoring_sort_methylation</text>
</g>
<!-- 21&#45;&gt;20 -->
<g id="edge28" class="edge">
<title>21&#45;&gt;20</title>
<path fill="none" stroke="grey" stroke-width="2" d="M1112.74,-215.34C1112.27,-208.75 1111.72,-201.08 1111.19,-193.67"/>
<polygon fill="grey" stroke="grey" stroke-width="2" points="1114.48,-193.63 1110.28,-183.9 1107.5,-194.13 1114.48,-193.63"/>
</g>
<!-- 22&#45;&gt;21 -->
<g id="edge29" class="edge">
<title>22&#45;&gt;21</title>
<path fill="none" stroke="grey" stroke-width="2" d="M1121.48,-287.34C1120.54,-280.75 1119.44,-273.08 1118.38,-265.67"/>
<polygon fill="grey" stroke="grey" stroke-width="2" points="1121.44,-264.31 1116.56,-254.9 1114.51,-265.3 1121.44,-264.31"/>
</g>
<!-- 23&#45;&gt;22 -->
<g id="edge31" class="edge">
<title>23&#45;&gt;22</title>
<path fill="none" stroke="grey" stroke-width="2" d="M1124,-359.34C1124,-352.75 1124,-345.08 1124,-337.67"/>
<polygon fill="grey" stroke="grey" stroke-width="2" points="1127.5,-337.9 1124,-327.9 1120.5,-337.9 1127.5,-337.9"/>
</g>
<!-- 24&#45;&gt;1 -->
<g id="edge9" class="edge">
<title>24&#45;&gt;1</title>
<path fill="none" stroke="grey" stroke-width="2" d="M781.79,-143.34C771.76,-135.36 759.71,-125.77 748.67,-116.99"/>
<polygon fill="grey" stroke="grey" stroke-width="2" points="750.51,-113.39 740.51,-109.9 746.15,-118.87 750.51,-113.39"/>
</g>
</g>
</svg>
